<svg id="Layer_1" data-name="Layer 1" xmlns="http://www.w3.org/2000/svg" viewBox="0 0 100 100"><defs><style>.cls-1{fill:#85ea2d;}.cls-2{fill:#173647;}</style></defs><path class="cls-1" d="M50,97.14A47.14,47.14,0,1,1,97.14,50,47.193,47.193,0,0,1,50,97.14Z"/><path class="cls-2" d="M50,5.219A44.781,44.781,0,1,1,5.219,50,44.781,44.781,0,0,1,50,5.219M50,.5A49.5,49.5,0,1,0,99.5,50,49.557,49.557,0,0,0,50,.5Z"/><path class="cls-2" d="M31.669,34c-.152,1.694.057,3.445-.056,5.158a42.171,42.171,0,0,1-.686,5.1,9.432,9.432,0,0,1-4.054,5.767c4.035,2.627,4.492,6.7,4.758,10.831.134,2.227.077,4.473.3,6.681.171,1.713.838,2.151,2.608,2.208.723.019,1.465,0,2.3,0v5.292c-5.234.894-9.555-.591-10.621-5.025a30.453,30.453,0,0,1-.647-4.949c-.115-1.771.075-3.541-.058-5.311-.381-4.854-1.009-6.491-5.652-6.719V47a8.805,8.805,0,0,1,1.008-.171c2.55-.134,3.635-.914,4.187-3.427a29.1,29.1,0,0,0,.476-4.283,80.942,80.942,0,0,1,.59-8.318c.666-3.94,3.1-5.844,7.158-6.072,1.142-.057,2.3,0,3.616,0v5.406c-.552.038-1.028.114-1.522.114C32.089,30.133,31.917,31.256,31.669,34Zm6.339,12.525h-.076a3.478,3.478,0,0,0-.343,6.947h.229a3.424,3.424,0,0,0,3.616-3.216v-.191A3.485,3.485,0,0,0,38.008,46.522Zm11.935,0A3.337,3.337,0,0,0,46.5,49.739a1.753,1.753,0,0,0,.02.323,3.263,3.263,0,0,0,3.54,3.407,3.229,3.229,0,0,0,3.407-3.521A3.273,3.273,0,0,0,49.943,46.522Zm12.22,0a3.554,3.554,0,0,0-3.616,3.445,3.492,3.492,0,0,0,3.5,3.5h.038c1.751.3,3.521-1.389,3.636-3.426A3.535,3.535,0,0,0,62.163,46.522Zm16.77.285c-2.209-.095-3.313-.837-3.864-2.931a21.233,21.233,0,0,1-.628-4.093c-.153-2.55-.134-5.12-.305-7.671-.4-6.052-4.777-8.165-11.136-7.118v5.253c1.009,0,1.789,0,2.57.019,1.352.019,2.38.533,2.512,2.037.134,1.37.134,2.76.267,4.149.267,2.761.418,5.558.894,8.281a8.62,8.62,0,0,0,3.883,5.291c-3.368,2.265-4.359,5.5-4.53,9.137-.094,2.493-.152,5.006-.285,7.519-.114,2.284-.914,3.026-3.217,3.083-.647.019-1.275.076-2,.114v5.387c1.351,0,2.589.076,3.826,0,3.845-.228,6.167-2.094,6.928-5.824a48.428,48.428,0,0,0,.571-6.206c.133-1.9.114-3.826.3-5.71.285-2.951,1.637-4.169,4.587-4.359a3.926,3.926,0,0,0,.818-.19V46.941C79.637,46.883,79.294,46.827,78.933,46.807Z"/></svg>