<svg width="583" height="175" viewBox="0 0 583 175" fill="none" xmlns="http://www.w3.org/2000/svg">
<rect opacity="0.1" x="-18" width="221" height="25" rx="12.5" fill="#5BD621"/>
<rect opacity="0.2" x="-87" y="75" width="221" height="25" rx="12.5" fill="#5BD621"/>
<rect opacity="0.3" x="223" width="162" height="25" rx="12.5" fill="#5BD621"/>
<rect opacity="0.1" x="-97" y="150" width="185" height="25" rx="12.5" fill="#5BD621"/>
<rect opacity="0.3" x="108" y="150" width="189" height="25" rx="12.5" fill="#5BD621"/>
<rect opacity="0.2" x="317" y="150" width="75" height="25" rx="12.5" fill="#5BD621"/>
<path d="M176.585 92.8842C176.585 92.3986 176.51 91.9628 176.361 91.5768C176.224 91.1783 175.962 90.8173 175.576 90.4935C175.19 90.1573 174.649 89.8274 173.952 89.5037C173.254 89.1799 172.352 88.8438 171.243 88.4951C170.011 88.0967 168.84 87.6484 167.732 87.1504C166.636 86.6523 165.665 86.0734 164.819 85.4135C163.984 84.7411 163.324 83.9629 162.839 83.0789C162.366 82.1948 162.129 81.1676 162.129 79.9972C162.129 78.8641 162.378 77.8369 162.876 76.9155C163.374 75.9817 164.072 75.1848 164.968 74.5249C165.865 73.8525 166.923 73.3358 168.143 72.9747C169.376 72.6136 170.727 72.4331 172.196 72.4331C174.201 72.4331 175.95 72.7942 177.444 73.5164C178.938 74.2385 180.096 75.2284 180.918 76.486C181.752 77.7435 182.169 79.1816 182.169 80.8003H176.604C176.604 80.0034 176.436 79.3062 176.099 78.7085C175.776 78.0984 175.278 77.619 174.605 77.2704C173.945 76.9218 173.111 76.7474 172.103 76.7474C171.131 76.7474 170.322 76.8969 169.675 77.1957C169.027 77.4821 168.542 77.8743 168.218 78.3723C167.894 78.8579 167.732 79.4058 167.732 80.0159C167.732 80.4766 167.844 80.8937 168.068 81.2672C168.305 81.6407 168.654 81.9894 169.114 82.3131C169.575 82.6368 170.141 82.9419 170.814 83.2283C171.486 83.5146 172.264 83.7948 173.148 84.0687C174.63 84.517 175.931 85.0212 177.052 85.5815C178.185 86.1418 179.131 86.7706 179.891 87.4679C180.65 88.1652 181.223 88.9558 181.609 89.8398C181.995 90.7239 182.188 91.7262 182.188 92.8468C182.188 94.0297 181.958 95.088 181.497 96.0219C181.036 96.9557 180.37 97.7463 179.499 98.3938C178.627 99.0413 177.587 99.5331 176.38 99.8693C175.172 100.205 173.821 100.374 172.327 100.374C170.982 100.374 169.656 100.199 168.349 99.8506C167.041 99.4895 165.852 98.9479 164.781 98.2257C163.723 97.5035 162.876 96.5822 162.241 95.4615C161.606 94.3409 161.289 93.0149 161.289 91.4834H166.91C166.91 92.3301 167.041 93.046 167.303 93.6312C167.564 94.2164 167.931 94.6896 168.405 95.0507C168.89 95.4117 169.463 95.6732 170.123 95.8351C170.795 95.9969 171.53 96.0779 172.327 96.0779C173.298 96.0779 174.095 95.9409 174.717 95.667C175.352 95.3931 175.819 95.0133 176.118 94.5277C176.429 94.0421 176.585 93.4943 176.585 92.8842ZM191.433 94.7705L195.635 79.7917H199.053L197.951 85.6749L193.749 100H190.891L191.433 94.7705ZM189.304 79.7917L192.311 94.7518L192.591 100H189.229L184.112 79.7917H189.304ZM202.901 94.509L205.833 79.7917H211.044L205.926 100H202.583L202.901 94.509ZM199.52 79.7917L203.704 94.6584L204.283 100H201.406L197.204 85.6936L196.14 79.7917H199.52ZM224.659 95.4429V86.4407C224.659 85.7932 224.553 85.2391 224.341 84.7784C224.13 84.3053 223.8 83.938 223.352 83.6765C222.916 83.415 222.349 83.2843 221.652 83.2843C221.054 83.2843 220.538 83.3901 220.102 83.6018C219.666 83.801 219.33 84.0936 219.093 84.4796C218.857 84.8531 218.738 85.2952 218.738 85.8057H213.359C213.359 84.9465 213.559 84.131 213.957 83.359C214.356 82.587 214.935 81.9084 215.694 81.3232C216.454 80.7256 217.356 80.2587 218.402 79.9225C219.461 79.5863 220.643 79.4182 221.951 79.4182C223.52 79.4182 224.914 79.6797 226.134 80.2026C227.355 80.7256 228.313 81.51 229.011 82.5559C229.72 83.6018 230.075 84.9092 230.075 86.478V95.1254C230.075 96.2335 230.144 97.1425 230.281 97.8522C230.418 98.5494 230.617 99.1595 230.878 99.6825V100H225.443C225.182 99.4521 224.983 98.7673 224.846 97.9456C224.721 97.1113 224.659 96.2771 224.659 95.4429ZM225.369 87.692L225.406 90.7363H222.399C221.689 90.7363 221.073 90.8173 220.55 90.9791C220.027 91.141 219.598 91.3713 219.261 91.6702C218.925 91.9565 218.676 92.2927 218.514 92.6787C218.365 93.0647 218.29 93.488 218.29 93.9487C218.29 94.4094 218.396 94.8265 218.608 95.2001C218.819 95.5612 219.124 95.8475 219.523 96.0592C219.921 96.2584 220.388 96.358 220.924 96.358C221.733 96.358 222.436 96.1962 223.034 95.8724C223.632 95.5487 224.092 95.1503 224.416 94.6771C224.752 94.204 224.927 93.7557 224.939 93.3324L226.359 95.611C226.159 96.1215 225.885 96.6506 225.537 97.1985C225.201 97.7463 224.771 98.2631 224.248 98.7487C223.725 99.2218 223.096 99.614 222.362 99.9253C221.627 100.224 220.755 100.374 219.747 100.374C218.464 100.374 217.3 100.118 216.254 99.6078C215.221 99.0848 214.399 98.3689 213.789 97.46C213.191 96.5386 212.893 95.4927 212.893 94.3223C212.893 93.2639 213.092 92.3239 213.49 91.5021C213.889 90.6803 214.474 89.9893 215.246 89.429C216.03 88.8562 217.008 88.4266 218.178 88.1403C219.349 87.8414 220.706 87.692 222.25 87.692H225.369ZM247.015 79.7917H251.89V99.3276C251.89 101.17 251.479 102.733 250.657 104.016C249.848 105.31 248.715 106.288 247.258 106.948C245.801 107.62 244.108 107.956 242.178 107.956C241.331 107.956 240.435 107.844 239.488 107.62C238.554 107.396 237.658 107.047 236.799 106.574C235.952 106.101 235.242 105.503 234.67 104.781L237.042 101.606C237.664 102.328 238.386 102.889 239.208 103.287C240.03 103.698 240.939 103.903 241.935 103.903C242.906 103.903 243.728 103.723 244.4 103.362C245.073 103.013 245.589 102.496 245.95 101.812C246.312 101.139 246.492 100.324 246.492 99.365V84.4609L247.015 79.7917ZM233.418 90.1387V89.7465C233.418 88.2025 233.605 86.8018 233.979 85.5442C234.365 84.2742 234.906 83.1847 235.604 82.2758C236.313 81.3668 237.172 80.6633 238.181 80.1653C239.189 79.6672 240.329 79.4182 241.599 79.4182C242.943 79.4182 244.07 79.6672 244.979 80.1653C245.888 80.6633 246.635 81.373 247.22 82.2944C247.806 83.2034 248.26 84.2804 248.584 85.5255C248.92 86.7582 249.182 88.1091 249.368 89.5784V90.4375C249.182 91.8445 248.901 93.1519 248.528 94.3596C248.154 95.5674 247.662 96.6257 247.052 97.5347C246.442 98.4312 245.683 99.1284 244.774 99.6265C243.877 100.125 242.807 100.374 241.561 100.374C240.316 100.374 239.189 100.118 238.181 99.6078C237.185 99.0973 236.332 98.3813 235.622 97.46C234.912 96.5386 234.365 95.4553 233.979 94.2102C233.605 92.9651 233.418 91.6079 233.418 90.1387ZM238.797 89.7465V90.1387C238.797 90.9729 238.878 91.7511 239.04 92.4733C239.202 93.1954 239.451 93.8367 239.787 94.397C240.136 94.9448 240.565 95.3744 241.076 95.6857C241.599 95.9845 242.215 96.1339 242.925 96.1339C243.908 96.1339 244.712 95.9285 245.334 95.5176C245.957 95.0942 246.424 94.5153 246.735 93.7806C247.046 93.046 247.227 92.1993 247.276 91.2406V88.7939C247.252 88.0095 247.146 87.306 246.959 86.6835C246.772 86.0485 246.511 85.5068 246.175 85.0586C245.838 84.6104 245.403 84.2617 244.867 84.0127C244.332 83.7637 243.697 83.6392 242.962 83.6392C242.252 83.6392 241.636 83.801 241.113 84.1248C240.603 84.436 240.173 84.8656 239.824 85.4135C239.488 85.9613 239.233 86.6088 239.059 87.3558C238.884 88.0905 238.797 88.8873 238.797 89.7465ZM268.867 79.7917H273.741V99.3276C273.741 101.17 273.331 102.733 272.509 104.016C271.699 105.31 270.566 106.288 269.11 106.948C267.653 107.62 265.959 107.956 264.03 107.956C263.183 107.956 262.286 107.844 261.34 107.62C260.406 107.396 259.51 107.047 258.651 106.574C257.804 106.101 257.094 105.503 256.521 104.781L258.893 101.606C259.516 102.328 260.238 102.889 261.06 103.287C261.882 103.698 262.791 103.903 263.787 103.903C264.758 103.903 265.58 103.723 266.252 103.362C266.924 103.013 267.441 102.496 267.802 101.812C268.163 101.139 268.344 100.324 268.344 99.365V84.4609L268.867 79.7917ZM255.27 90.1387V89.7465C255.27 88.2025 255.457 86.8018 255.83 85.5442C256.216 84.2742 256.758 83.1847 257.455 82.2758C258.165 81.3668 259.024 80.6633 260.033 80.1653C261.041 79.6672 262.181 79.4182 263.451 79.4182C264.795 79.4182 265.922 79.6672 266.831 80.1653C267.74 80.6633 268.487 81.373 269.072 82.2944C269.657 83.2034 270.112 84.2804 270.436 85.5255C270.772 86.7582 271.033 88.1091 271.22 89.5784V90.4375C271.033 91.8445 270.753 93.1519 270.38 94.3596C270.006 95.5674 269.514 96.6257 268.904 97.5347C268.294 98.4312 267.535 99.1284 266.626 99.6265C265.729 100.125 264.658 100.374 263.413 100.374C262.168 100.374 261.041 100.118 260.033 99.6078C259.037 99.0973 258.184 98.3813 257.474 97.46C256.764 96.5386 256.216 95.4553 255.83 94.2102C255.457 92.9651 255.27 91.6079 255.27 90.1387ZM260.649 89.7465V90.1387C260.649 90.9729 260.73 91.7511 260.892 92.4733C261.054 93.1954 261.303 93.8367 261.639 94.397C261.988 94.9448 262.417 95.3744 262.928 95.6857C263.451 95.9845 264.067 96.1339 264.777 96.1339C265.76 96.1339 266.563 95.9285 267.186 95.5176C267.808 95.0942 268.275 94.5153 268.587 93.7806C268.898 93.046 269.078 92.1993 269.128 91.2406V88.7939C269.103 88.0095 268.998 87.306 268.811 86.6835C268.624 86.0485 268.363 85.5068 268.026 85.0586C267.69 84.6104 267.254 84.2617 266.719 84.0127C266.184 83.7637 265.549 83.6392 264.814 83.6392C264.104 83.6392 263.488 83.801 262.965 84.1248C262.454 84.436 262.025 84.8656 261.676 85.4135C261.34 85.9613 261.085 86.6088 260.911 87.3558C260.736 88.0905 260.649 88.8873 260.649 89.7465ZM287.226 100.374C285.657 100.374 284.25 100.125 283.005 99.6265C281.76 99.116 280.702 98.4125 279.83 97.516C278.971 96.6195 278.311 95.5798 277.85 94.397C277.39 93.2017 277.159 91.9316 277.159 90.5869V89.8398C277.159 88.3083 277.377 86.9076 277.813 85.6376C278.249 84.3676 278.871 83.2656 279.681 82.3318C280.502 81.3979 281.499 80.682 282.669 80.184C283.839 79.6735 285.159 79.4182 286.628 79.4182C288.06 79.4182 289.33 79.6548 290.438 80.1279C291.547 80.6011 292.474 81.2734 293.221 82.145C293.981 83.0166 294.554 84.0625 294.94 85.2827C295.326 86.4905 295.519 87.8352 295.519 89.3169V91.5581H279.457V87.9722H290.233V87.5613C290.233 86.8142 290.096 86.1481 289.822 85.5629C289.561 84.9652 289.162 84.4921 288.627 84.1434C288.091 83.7948 287.407 83.6205 286.572 83.6205C285.863 83.6205 285.253 83.7761 284.742 84.0874C284.232 84.3987 283.814 84.8345 283.491 85.3948C283.179 85.9551 282.943 86.615 282.781 87.3745C282.632 88.1216 282.557 88.9434 282.557 89.8398V90.5869C282.557 91.3962 282.669 92.1433 282.893 92.8281C283.13 93.5129 283.46 94.1044 283.883 94.6024C284.319 95.1005 284.842 95.4865 285.452 95.7604C286.074 96.0343 286.778 96.1713 287.562 96.1713C288.533 96.1713 289.436 95.9845 290.27 95.611C291.117 95.225 291.845 94.646 292.456 93.874L295.07 96.7129C294.647 97.323 294.068 97.9082 293.333 98.4685C292.611 99.0288 291.74 99.4895 290.719 99.8506C289.698 100.199 288.533 100.374 287.226 100.374ZM303.96 84.1995V100H298.582V79.7917H303.643L303.96 84.1995ZM310.049 79.661L309.956 84.6477C309.694 84.6104 309.377 84.5792 309.003 84.5543C308.642 84.517 308.312 84.4983 308.013 84.4983C307.254 84.4983 306.594 84.5979 306.034 84.7971C305.486 84.9839 305.025 85.264 304.651 85.6376C304.29 86.0111 304.016 86.4656 303.83 87.001C303.655 87.5364 303.556 88.1465 303.531 88.8313L302.448 88.4951C302.448 87.1877 302.578 85.9862 302.84 84.8905C303.101 83.7823 303.481 82.8174 303.979 81.9956C304.49 81.1738 305.112 80.5388 305.847 80.0906C306.581 79.6423 307.422 79.4182 308.368 79.4182C308.667 79.4182 308.972 79.4431 309.283 79.4929C309.595 79.5303 309.85 79.5863 310.049 79.661ZM330.799 100H324.878L324.916 95.6296H330.799C332.268 95.6296 333.507 95.2997 334.516 94.6398C335.524 93.9674 336.284 92.99 336.794 91.7075C337.317 90.425 337.579 88.8749 337.579 87.057V85.731C337.579 84.3364 337.429 83.11 337.13 82.0516C336.844 80.9933 336.414 80.103 335.842 79.3809C335.269 78.6587 334.565 78.1171 333.731 77.756C332.897 77.3824 331.938 77.1957 330.855 77.1957H324.766V72.8066H330.855C332.673 72.8066 334.335 73.1179 335.842 73.7405C337.361 74.3506 338.674 75.2284 339.782 76.3739C340.891 77.5194 341.744 78.889 342.341 80.4828C342.951 82.0641 343.256 83.8259 343.256 85.7683V87.057C343.256 88.9869 342.951 90.7488 342.341 92.3425C341.744 93.9363 340.891 95.3059 339.782 96.4514C338.687 97.5845 337.373 98.4623 335.842 99.0848C334.323 99.6949 332.642 100 330.799 100ZM328.053 72.8066V100H322.45V72.8066H328.053ZM346.133 90.1013V89.7091C346.133 88.2274 346.344 86.864 346.768 85.6189C347.191 84.3613 347.807 83.2719 348.617 82.3505C349.426 81.4291 350.422 80.7131 351.605 80.2026C352.788 79.6797 354.145 79.4182 355.676 79.4182C357.208 79.4182 358.571 79.6797 359.767 80.2026C360.962 80.7131 361.964 81.4291 362.774 82.3505C363.595 83.2719 364.218 84.3613 364.641 85.6189C365.065 86.864 365.276 88.2274 365.276 89.7091V90.1013C365.276 91.5706 365.065 92.934 364.641 94.1915C364.218 95.4366 363.595 96.5261 362.774 97.46C361.964 98.3813 360.968 99.0973 359.785 99.6078C358.602 100.118 357.245 100.374 355.714 100.374C354.182 100.374 352.819 100.118 351.624 99.6078C350.441 99.0973 349.438 98.3813 348.617 97.46C347.807 96.5261 347.191 95.4366 346.768 94.1915C346.344 92.934 346.133 91.5706 346.133 90.1013ZM351.511 89.7091V90.1013C351.511 90.948 351.586 91.7386 351.736 92.4733C351.885 93.2079 352.122 93.8553 352.445 94.4156C352.781 94.9635 353.217 95.3931 353.753 95.7043C354.288 96.0156 354.942 96.1713 355.714 96.1713C356.461 96.1713 357.102 96.0156 357.637 95.7043C358.173 95.3931 358.602 94.9635 358.926 94.4156C359.25 93.8553 359.486 93.2079 359.636 92.4733C359.798 91.7386 359.879 90.948 359.879 90.1013V89.7091C359.879 88.8873 359.798 88.1154 359.636 87.3932C359.486 86.6586 359.244 86.0111 358.907 85.4508C358.584 84.8781 358.154 84.4298 357.619 84.1061C357.083 83.7823 356.436 83.6205 355.676 83.6205C354.917 83.6205 354.269 83.7823 353.734 84.1061C353.211 84.4298 352.781 84.8781 352.445 85.4508C352.122 86.0111 351.885 86.6586 351.736 87.3932C351.586 88.1154 351.511 88.8873 351.511 89.7091ZM376.931 96.1713C377.59 96.1713 378.176 96.0468 378.686 95.7977C379.197 95.5363 379.595 95.1752 379.881 94.7145C380.18 94.2413 380.336 93.6873 380.348 93.0522H385.41C385.397 94.4717 385.018 95.7355 384.271 96.8436C383.523 97.9393 382.521 98.8047 381.264 99.4397C380.006 100.062 378.599 100.374 377.043 100.374C375.474 100.374 374.104 100.112 372.934 99.5891C371.776 99.0662 370.811 98.344 370.039 97.4226C369.267 96.4888 368.688 95.4055 368.302 94.1729C367.916 92.9277 367.723 91.5955 367.723 90.176V89.6344C367.723 88.2025 367.916 86.8702 368.302 85.6376C368.688 84.3925 369.267 83.3092 370.039 82.3878C370.811 81.454 371.776 80.7256 372.934 80.2026C374.092 79.6797 375.449 79.4182 377.005 79.4182C378.661 79.4182 380.112 79.7357 381.357 80.3707C382.615 81.0057 383.598 81.9147 384.308 83.0975C385.03 84.2679 385.397 85.6562 385.41 87.2625H380.348C380.336 86.5901 380.193 85.98 379.919 85.4321C379.657 84.8843 379.271 84.4485 378.761 84.1248C378.263 83.7886 377.646 83.6205 376.912 83.6205C376.127 83.6205 375.486 83.7886 374.988 84.1248C374.49 84.4485 374.104 84.8967 373.83 85.4695C373.556 86.0298 373.363 86.671 373.251 87.3932C373.152 88.1029 373.102 88.85 373.102 89.6344V90.176C373.102 90.9604 373.152 91.7137 373.251 92.4359C373.351 93.1581 373.538 93.7993 373.812 94.3596C374.098 94.9199 374.49 95.3619 374.988 95.6857C375.486 96.0094 376.134 96.1713 376.931 96.1713ZM400.482 95.1627V79.7917H405.861V100H400.799L400.482 95.1627ZM401.08 91.0165L402.667 90.9791C402.667 92.3239 402.511 93.5752 402.2 94.7332C401.889 95.8787 401.422 96.8748 400.799 97.7214C400.177 98.5557 399.392 99.2094 398.446 99.6825C397.5 100.143 396.385 100.374 395.103 100.374C394.119 100.374 393.21 100.237 392.376 99.9626C391.554 99.6763 390.845 99.2343 390.247 98.6366C389.662 98.0265 389.201 97.2483 388.865 96.302C388.541 95.3433 388.379 94.1915 388.379 92.8468V79.7917H393.758V92.8842C393.758 93.4818 393.827 93.9861 393.964 94.397C394.113 94.8079 394.319 95.144 394.58 95.4055C394.842 95.667 395.147 95.8538 395.495 95.9658C395.856 96.0779 396.255 96.1339 396.691 96.1339C397.799 96.1339 398.67 95.9098 399.305 95.4615C399.953 95.0133 400.407 94.4032 400.669 93.6312C400.943 92.8468 401.08 91.9752 401.08 91.0165ZM415.349 83.9753V100H409.951V79.7917H415.012L415.349 83.9753ZM414.602 89.1862H413.107C413.107 87.7792 413.276 86.4843 413.612 85.3014C413.96 84.1061 414.465 83.0726 415.125 82.201C415.797 81.317 416.625 80.6322 417.609 80.1466C418.592 79.661 419.731 79.4182 421.026 79.4182C421.923 79.4182 422.745 79.5552 423.492 79.8291C424.239 80.0906 424.88 80.5077 425.415 81.0804C425.963 81.6407 426.387 82.3754 426.685 83.2843C426.984 84.1808 427.134 85.2578 427.134 86.5154V100H421.755V87.113C421.755 86.1917 421.63 85.4819 421.381 84.9839C421.132 84.4858 420.777 84.1372 420.317 83.938C419.868 83.7388 419.327 83.6392 418.692 83.6392C417.995 83.6392 417.384 83.7823 416.861 84.0687C416.351 84.3551 415.928 84.7535 415.591 85.264C415.255 85.7621 415.006 86.3473 414.844 87.0197C414.682 87.692 414.602 88.4142 414.602 89.1862ZM426.629 88.5698L424.706 88.8126C424.706 87.4928 424.868 86.2664 425.191 85.1333C425.527 84.0002 426.019 83.0042 426.667 82.145C427.327 81.2859 428.142 80.6198 429.113 80.1466C430.085 79.661 431.205 79.4182 432.475 79.4182C433.446 79.4182 434.33 79.5614 435.127 79.8478C435.924 80.1217 436.603 80.5637 437.163 81.1738C437.736 81.7715 438.172 82.5559 438.47 83.5271C438.782 84.4983 438.937 85.6874 438.937 87.0944V100H433.54V87.0944C433.54 86.1605 433.415 85.4508 433.166 84.9652C432.93 84.4672 432.581 84.1248 432.12 83.938C431.672 83.7388 431.137 83.6392 430.514 83.6392C429.867 83.6392 429.3 83.7699 428.815 84.0314C428.329 84.2804 427.924 84.629 427.601 85.0773C427.277 85.5255 427.034 86.0485 426.872 86.6461C426.71 87.2313 426.629 87.8726 426.629 88.5698ZM452.403 100.374C450.834 100.374 449.427 100.125 448.182 99.6265C446.937 99.116 445.879 98.4125 445.007 97.516C444.148 96.6195 443.488 95.5798 443.028 94.397C442.567 93.2017 442.337 91.9316 442.337 90.5869V89.8398C442.337 88.3083 442.554 86.9076 442.99 85.6376C443.426 84.3676 444.049 83.2656 444.858 82.3318C445.68 81.3979 446.676 80.682 447.846 80.184C449.017 79.6735 450.336 79.4182 451.806 79.4182C453.238 79.4182 454.508 79.6548 455.616 80.1279C456.724 80.6011 457.651 81.2734 458.399 82.145C459.158 83.0166 459.731 84.0625 460.117 85.2827C460.503 86.4905 460.696 87.8352 460.696 89.3169V91.5581H444.634V87.9722H455.41V87.5613C455.41 86.8142 455.273 86.1481 454.999 85.5629C454.738 84.9652 454.339 84.4921 453.804 84.1434C453.269 83.7948 452.584 83.6205 451.75 83.6205C451.04 83.6205 450.43 83.7761 449.919 84.0874C449.409 84.3987 448.992 84.8345 448.668 85.3948C448.357 85.9551 448.12 86.615 447.958 87.3745C447.809 88.1216 447.734 88.9434 447.734 89.8398V90.5869C447.734 91.3962 447.846 92.1433 448.07 92.8281C448.307 93.5129 448.637 94.1044 449.06 94.6024C449.496 95.1005 450.019 95.4865 450.629 95.7604C451.252 96.0343 451.955 96.1713 452.74 96.1713C453.711 96.1713 454.613 95.9845 455.448 95.611C456.294 95.225 457.023 94.646 457.633 93.874L460.248 96.7129C459.824 97.323 459.245 97.9082 458.511 98.4685C457.788 99.0288 456.917 99.4895 455.896 99.8506C454.875 100.199 453.711 100.374 452.403 100.374ZM469.026 84.1061V100H463.647V79.7917H468.689L469.026 84.1061ZM468.241 89.1862H466.784C466.784 87.692 466.977 86.3473 467.363 85.152C467.749 83.9442 468.291 82.917 468.988 82.0703C469.686 81.2112 470.514 80.5575 471.472 80.1093C472.443 79.6486 473.527 79.4182 474.722 79.4182C475.668 79.4182 476.534 79.5552 477.318 79.8291C478.103 80.103 478.775 80.5388 479.335 81.1365C479.908 81.7341 480.344 82.5248 480.643 83.5084C480.954 84.4921 481.109 85.6936 481.109 87.113V100H475.693V87.0944C475.693 86.1979 475.569 85.5006 475.32 85.0026C475.071 84.5045 474.703 84.1559 474.218 83.9567C473.745 83.745 473.159 83.6392 472.462 83.6392C471.74 83.6392 471.111 83.7823 470.576 84.0687C470.053 84.3551 469.617 84.7535 469.268 85.264C468.932 85.7621 468.677 86.3473 468.503 87.0197C468.328 87.692 468.241 88.4142 468.241 89.1862ZM495.098 79.7917V83.6018H483.332V79.7917H495.098ZM486.246 74.8051H491.625V93.9114C491.625 94.4966 491.699 94.9448 491.849 95.2561C492.01 95.5674 492.247 95.7853 492.558 95.9098C492.87 96.0219 493.262 96.0779 493.735 96.0779C494.071 96.0779 494.37 96.0654 494.631 96.0405C494.905 96.0032 495.136 95.9658 495.323 95.9285L495.341 99.8879C494.88 100.037 494.382 100.156 493.847 100.243C493.312 100.33 492.72 100.374 492.073 100.374C490.89 100.374 489.856 100.181 488.972 99.7946C488.101 99.3961 487.428 98.7611 486.955 97.8895C486.482 97.0179 486.246 95.8724 486.246 94.453V74.8051ZM509.069 95.4429V86.4407C509.069 85.7932 508.963 85.2391 508.751 84.7784C508.539 84.3053 508.209 83.938 507.761 83.6765C507.325 83.415 506.759 83.2843 506.062 83.2843C505.464 83.2843 504.947 83.3901 504.511 83.6018C504.076 83.801 503.74 84.0936 503.503 84.4796C503.266 84.8531 503.148 85.2952 503.148 85.8057H497.769C497.769 84.9465 497.968 84.131 498.367 83.359C498.765 82.587 499.344 81.9084 500.104 81.3232C500.863 80.7256 501.766 80.2587 502.812 79.9225C503.87 79.5863 505.053 79.4182 506.36 79.4182C507.929 79.4182 509.324 79.6797 510.544 80.2026C511.764 80.7256 512.723 81.51 513.42 82.5559C514.13 83.6018 514.485 84.9092 514.485 86.478V95.1254C514.485 96.2335 514.553 97.1425 514.69 97.8522C514.827 98.5494 515.026 99.1595 515.288 99.6825V100H509.853C509.592 99.4521 509.392 98.7673 509.255 97.9456C509.131 97.1113 509.069 96.2771 509.069 95.4429ZM509.778 87.692L509.816 90.7363H506.809C506.099 90.7363 505.483 90.8173 504.96 90.9791C504.437 91.141 504.007 91.3713 503.671 91.6702C503.335 91.9565 503.086 92.2927 502.924 92.6787C502.775 93.0647 502.7 93.488 502.7 93.9487C502.7 94.4094 502.806 94.8265 503.017 95.2001C503.229 95.5612 503.534 95.8475 503.932 96.0592C504.331 96.2584 504.798 96.358 505.333 96.358C506.143 96.358 506.846 96.1962 507.444 95.8724C508.041 95.5487 508.502 95.1503 508.826 94.6771C509.162 94.204 509.336 93.7557 509.349 93.3324L510.768 95.611C510.569 96.1215 510.295 96.6506 509.946 97.1985C509.61 97.7463 509.181 98.2631 508.658 98.7487C508.135 99.2218 507.506 99.614 506.771 99.9253C506.037 100.224 505.165 100.374 504.157 100.374C502.874 100.374 501.71 100.118 500.664 99.6078C499.631 99.0848 498.809 98.3689 498.199 97.46C497.601 96.5386 497.302 95.4927 497.302 94.3223C497.302 93.2639 497.501 92.3239 497.9 91.5021C498.298 90.6803 498.884 89.9893 499.656 89.429C500.44 88.8562 501.417 88.4266 502.588 88.1403C503.758 87.8414 505.115 87.692 506.659 87.692H509.778ZM528.53 79.7917V83.6018H516.763V79.7917H528.53ZM519.677 74.8051H525.056V93.9114C525.056 94.4966 525.131 94.9448 525.28 95.2561C525.442 95.5674 525.678 95.7853 525.99 95.9098C526.301 96.0219 526.693 96.0779 527.166 96.0779C527.503 96.0779 527.801 96.0654 528.063 96.0405C528.337 96.0032 528.567 95.9658 528.754 95.9285L528.773 99.8879C528.312 100.037 527.814 100.156 527.278 100.243C526.743 100.33 526.152 100.374 525.504 100.374C524.321 100.374 523.288 100.181 522.404 99.7946C521.532 99.3961 520.86 98.7611 520.387 97.8895C519.914 97.0179 519.677 95.8724 519.677 94.453V74.8051ZM537.271 79.7917V100H531.873V79.7917H537.271ZM531.537 74.5249C531.537 73.7405 531.811 73.093 532.359 72.5825C532.906 72.072 533.641 71.8168 534.562 71.8168C535.471 71.8168 536.2 72.072 536.748 72.5825C537.308 73.093 537.588 73.7405 537.588 74.5249C537.588 75.3093 537.308 75.9568 536.748 76.4673C536.2 76.9778 535.471 77.233 534.562 77.233C533.641 77.233 532.906 76.9778 532.359 76.4673C531.811 75.9568 531.537 75.3093 531.537 74.5249ZM540.856 90.1013V89.7091C540.856 88.2274 541.068 86.864 541.491 85.6189C541.915 84.3613 542.531 83.2719 543.34 82.3505C544.15 81.4291 545.146 80.7131 546.329 80.2026C547.512 79.6797 548.869 79.4182 550.4 79.4182C551.932 79.4182 553.295 79.6797 554.49 80.2026C555.686 80.7131 556.688 81.4291 557.497 82.3505C558.319 83.2719 558.942 84.3613 559.365 85.6189C559.788 86.864 560 88.2274 560 89.7091V90.1013C560 91.5706 559.788 92.934 559.365 94.1915C558.942 95.4366 558.319 96.5261 557.497 97.46C556.688 98.3813 555.692 99.0973 554.509 99.6078C553.326 100.118 551.969 100.374 550.438 100.374C548.906 100.374 547.543 100.118 546.347 99.6078C545.165 99.0973 544.162 98.3813 543.34 97.46C542.531 96.5261 541.915 95.4366 541.491 94.1915C541.068 92.934 540.856 91.5706 540.856 90.1013ZM546.235 89.7091V90.1013C546.235 90.948 546.31 91.7386 546.459 92.4733C546.609 93.2079 546.845 93.8553 547.169 94.4156C547.505 94.9635 547.941 95.3931 548.477 95.7043C549.012 96.0156 549.666 96.1713 550.438 96.1713C551.185 96.1713 551.826 96.0156 552.361 95.7043C552.897 95.3931 553.326 94.9635 553.65 94.4156C553.974 93.8553 554.21 93.2079 554.36 92.4733C554.522 91.7386 554.603 90.948 554.603 90.1013V89.7091C554.603 88.8873 554.522 88.1154 554.36 87.3932C554.21 86.6586 553.968 86.0111 553.631 85.4508C553.308 84.8781 552.878 84.4298 552.343 84.1061C551.807 83.7823 551.16 83.6205 550.4 83.6205C549.641 83.6205 548.993 83.7823 548.458 84.1061C547.935 84.4298 547.505 84.8781 547.169 85.4508C546.845 86.0111 546.609 86.6586 546.459 87.3932C546.31 88.1154 546.235 88.8873 546.235 89.7091ZM568.573 84.1061V100H563.194V79.7917H568.237L568.573 84.1061ZM567.788 89.1862H566.332C566.332 87.692 566.525 86.3473 566.911 85.152C567.297 83.9442 567.838 82.917 568.535 82.0703C569.233 81.2112 570.061 80.5575 571.019 80.1093C571.991 79.6486 573.074 79.4182 574.269 79.4182C575.215 79.4182 576.081 79.5552 576.865 79.8291C577.65 80.103 578.322 80.5388 578.882 81.1365C579.455 81.7341 579.891 82.5248 580.19 83.5084C580.501 84.4921 580.657 85.6936 580.657 87.113V100H575.24V87.0944C575.24 86.1979 575.116 85.5006 574.867 85.0026C574.618 84.5045 574.25 84.1559 573.765 83.9567C573.292 83.745 572.707 83.6392 572.009 83.6392C571.287 83.6392 570.658 83.7823 570.123 84.0687C569.6 84.3551 569.164 84.7535 568.816 85.264C568.479 85.7621 568.224 86.3473 568.05 87.0197C567.875 87.692 567.788 88.4142 567.788 89.1862Z" fill="#173647"/>
</svg>
