<svg width="150" height="19" viewBox="0 0 150 19" fill="none" xmlns="http://www.w3.org/2000/svg">
<g id="SmartBear Horizontal Color 1" clip-path="url(#clip0_37_5)">
<path id="Vector" d="M46.8512 8.58419C46.8512 8.58419 44.5118 8.31728 43.5435 8.31728C42.1396 8.31728 41.4216 8.81773 41.4216 9.8043C41.4216 10.8719 42.0221 11.1238 43.9776 11.6587C46.3835 12.3259 47.2519 12.9619 47.2519 14.9163C47.2519 17.4226 45.6818 18.5083 43.4261 18.5083C42.1689 18.4547 40.9178 18.3038 39.684 18.0569L39.8678 16.5702C39.8678 16.5702 42.1232 16.8704 43.3097 16.8704C44.7293 16.8704 45.3809 16.2365 45.3809 15.0324C45.3809 14.0649 44.8631 13.7292 43.1088 13.3118C40.6362 12.6779 39.5669 11.9249 39.5669 9.93743C39.5669 7.63165 41.0873 6.67944 43.376 6.67944C44.5925 6.72571 45.8041 6.85951 47.0014 7.07981L46.8512 8.58419Z" fill="#173647"/>
<path id="Vector_2" d="M51.7 6.88062H54.925L57.481 15.8185L60.037 6.88062H63.278V18.3244H61.4069V8.43404H61.3085L58.4502 17.8567H56.5118L53.6532 8.43404H53.5531V18.3244H51.6984L51.7 6.88062Z" fill="#173647"/>
<path id="Vector_3" d="M91.9995 6.88062H100.352V8.53413H97.1285V18.3244H95.2575V8.53413H91.9995V6.88062Z" fill="#173647"/>
<path id="Vector_4" d="M108.423 6.88062C110.695 6.88062 111.914 7.7324 111.914 9.85434C111.914 11.2409 111.481 11.9256 110.561 12.427C111.547 12.811 112.198 13.5127 112.198 15.0831C112.198 17.4226 110.778 18.3244 108.556 18.3244H104.079V6.88062H108.423ZM105.933 8.48408V11.7587H108.389C109.526 11.7587 110.026 11.1916 110.026 10.0712C110.026 8.9702 109.459 8.48408 108.322 8.48408H105.933ZM105.933 13.3295V16.721H108.456C109.609 16.721 110.294 16.354 110.294 14.983C110.294 13.6798 109.326 13.3295 108.423 13.3295H105.933Z" fill="#173647"/>
<path id="Vector_5" d="M116.795 6.88062H124.014V8.5011H118.65V11.7417H123.01V13.3295H118.65V16.6873H124.014V18.3244H116.795V6.88062Z" fill="#173647"/>
<path id="Vector_6" d="M130.663 6.88062H134.356L137.196 18.3244H135.324L134.479 14.9667H130.538L129.694 18.3244H127.839L130.663 6.88062ZM130.909 13.3295H134.119L132.935 8.43404H132.101L130.909 13.3295Z" fill="#173647"/>
<path id="Vector_7" d="M143.177 14.933V18.3244H141.322V6.88062H145.667C148.189 6.88062 149.543 8.32594 149.543 10.8649C149.543 12.4854 148.891 13.9474 147.672 14.5153L149.56 18.3244H147.521L145.867 14.933H143.177ZM145.667 8.48408H143.177V13.3295H145.7C147.103 13.3295 147.637 12.0677 147.637 10.8819C147.637 9.57842 147.003 8.48408 145.667 8.48408Z" fill="#173647"/>
<path id="Vector_8" d="M70.1456 6.88062H73.8373L76.6776 18.3244H74.8065L73.9614 14.9667H70.0212L69.1764 18.3244H67.322L70.1456 6.88062ZM70.3918 13.3295H73.6008L72.4164 8.43404H71.5823L70.3918 13.3295Z" fill="#173647"/>
<path id="Vector_9" d="M82.6596 14.933V18.3244H80.8049V6.88062H85.1492C87.6716 6.88062 89.0248 8.32594 89.0248 10.8649C89.0248 12.4854 88.3732 13.9474 87.1537 14.5153L89.0418 18.3244H87.0036L85.3494 14.933H82.6596ZM85.1492 8.48408H82.6596V13.3295H85.1826C86.5859 13.3295 87.1204 12.0677 87.1204 10.8819C87.1204 9.57842 86.4858 8.48408 85.1492 8.48408Z" fill="#173647"/>
<path id="Vector_10" d="M19.5359 16.0597H14.231L13.2898 18.959H20.4771L19.5359 16.0597ZM33.7652 18.959L30.9817 10.3925L32.7797 4.85845L26.0932 0L21.3836 3.42247H12.3817L7.67369 0L0.985569 4.85845L2.78355 10.3925L0 18.959H8.78204L8.09975 16.8571L16.8821 10.4763L25.6655 16.8574L24.9832 18.9594L33.7652 18.959Z" fill="#FF730B"/>
</g>
<defs>
<clipPath id="clip0_37_5">
<rect width="150" height="18.959" fill="white"/>
</clipPath>
</defs>
</svg>
