<svg xmlns="http://www.w3.org/2000/svg" xmlns:xlink="http://www.w3.org/1999/xlink" viewBox="0 0 407 116">
  <defs>
    <style>
      .cls-1 {
        clip-path: url(#clip-SW_TM-logo-clr);
      }

      .cls-2 {
        fill: #173647;
      }

      .cls-3 {
        fill: #85ea2d;
      }
    </style>
    <clipPath id="clip-SW_TM-logo-clr">
      <rect width="407" height="116"/>
    </clipPath>
  </defs>
  <g id="SW_TM-logo-clr" class="cls-1">
    <g id="SW_Full-CLR" transform="translate(-0.301)">
      <path id="Path_2827" data-name="Path 2827" class="cls-2" d="M358.929,70.674h-.7V66.992h-1.26v-.6h3.22v.6h-1.26Z"/>
      <path id="Path_2828" data-name="Path 2828" class="cls-2" d="M363,70.674,361.755,67.1h-.023c.033.531.049,1.03.049,1.494v2.083h-.635V66.391h.987l1.189,3.407h.018l1.225-3.407h.99v4.283h-.674V68.556q0-.319.016-.832t.028-.621H364.9l-1.287,3.571Z"/>
      <path id="Path_2829" data-name="Path 2829" class="cls-3" d="M50.328,97.669A47.642,47.642,0,1,1,97.971,50.027,47.642,47.642,0,0,1,50.328,97.669Z"/>
      <path id="Path_2830" data-name="Path 2830" class="cls-2" d="M50.328,4.769A45.258,45.258,0,1,1,5.07,50.027,45.258,45.258,0,0,1,50.328,4.769m0-4.769a50.027,50.027,0,1,0,50.027,50.027A50.027,50.027,0,0,0,50.328,0Z"/>
      <path id="Path_2831" data-name="Path 2831" class="cls-2" d="M31.8,33.854c-.154,1.712.058,3.482-.057,5.213a42.665,42.665,0,0,1-.693,5.156,9.53,9.53,0,0,1-4.1,5.829c4.079,2.654,4.54,6.771,4.81,10.946.135,2.25.077,4.52.308,6.752.173,1.731.846,2.174,2.636,2.231.73.02,1.48,0,2.327,0V75.33c-5.29.9-9.657-.6-10.734-5.079a30.76,30.76,0,0,1-.654-5c-.117-1.789.076-3.578-.058-5.367-.386-4.906-1.02-6.56-5.713-6.791v-6.1A9.191,9.191,0,0,1,20.9,46.82c2.577-.135,3.674-.924,4.231-3.463a29.3,29.3,0,0,0,.481-4.329,82.1,82.1,0,0,1,.6-8.406c.673-3.982,3.136-5.906,7.234-6.137,1.154-.057,2.327,0,3.655,0v5.464c-.558.038-1.039.115-1.539.115C32.226,29.949,32.052,31.084,31.8,33.854Zm6.406,12.658h-.077a3.515,3.515,0,1,0-.346,7.021h.231a3.461,3.461,0,0,0,3.655-3.251V50.09a3.523,3.523,0,0,0-3.461-3.578Zm12.062,0a3.373,3.373,0,0,0-3.482,3.251,1.79,1.79,0,0,0,.02.327,3.3,3.3,0,0,0,3.578,3.443,3.263,3.263,0,0,0,3.443-3.558,3.308,3.308,0,0,0-3.557-3.463Zm12.351,0a3.592,3.592,0,0,0-3.655,3.482A3.529,3.529,0,0,0,62.5,53.533h.039c1.769.309,3.559-1.4,3.674-3.462a3.571,3.571,0,0,0-3.6-3.559Zm16.948.288c-2.232-.1-3.348-.846-3.9-2.962a21.447,21.447,0,0,1-.635-4.136c-.154-2.578-.135-5.175-.308-7.753-.4-6.117-4.828-8.252-11.254-7.195v5.31c1.019,0,1.808,0,2.6.019,1.366.019,2.4.539,2.539,2.059.135,1.385.135,2.789.27,4.193.269,2.79.422,5.618.9,8.369A8.715,8.715,0,0,0,73.7,50.052c-3.4,2.289-4.406,5.559-4.578,9.234-.1,2.52-.154,5.059-.289,7.6-.115,2.308-.923,3.058-3.251,3.116-.654.019-1.289.077-2.019.115v5.445c1.365,0,2.616.077,3.866,0,3.886-.231,6.233-2.117,7-5.887A49.079,49.079,0,0,0,75,63.4c.135-1.923.116-3.866.308-5.771.289-2.982,1.655-4.213,4.636-4.4a4.037,4.037,0,0,0,.828-.192v-6.1c-.5-.058-.843-.115-1.208-.135Z"/>
      <path id="Path_2832" data-name="Path 2832" class="cls-2" d="M152.273,58.122a11.228,11.228,0,0,1-4.384,9.424q-4.383,3.381-11.9,3.381-8.14,0-12.524-2.1V63.7a32.9,32.9,0,0,0,6.137,1.879,32.294,32.294,0,0,0,6.575.688q5.322,0,8.015-2.019a6.626,6.626,0,0,0,2.692-5.62,7.222,7.222,0,0,0-.954-3.9,8.885,8.885,0,0,0-3.194-2.8,44.72,44.72,0,0,0-6.81-2.912q-6.387-2.285-9.126-5.416a11.955,11.955,0,0,1-2.74-8.172A10.162,10.162,0,0,1,128.039,27q3.977-3.131,10.52-3.131a31,31,0,0,1,12.555,2.5L149.455,31a28.38,28.38,0,0,0-11.021-2.379,10.668,10.668,0,0,0-6.606,1.816,5.984,5.984,0,0,0-2.38,5.041,7.713,7.713,0,0,0,.877,3.9,8.236,8.236,0,0,0,2.959,2.787,36.708,36.708,0,0,0,6.371,2.8q7.2,2.568,9.91,5.511A10.839,10.839,0,0,1,152.273,58.122Z"/>
      <path id="Path_2833" data-name="Path 2833" class="cls-2" d="M185.288,70.3,179,50.17q-.594-1.848-2.222-8.391h-.251q-1.252,5.479-2.192,8.453L167.849,70.3h-6.011l-9.361-34.314h5.447q3.318,12.93,5.057,19.693a80.109,80.109,0,0,1,1.988,9.111h.25q.345-1.785,1.112-4.618t1.33-4.493l6.294-19.693h5.635l6.137,19.693a66.369,66.369,0,0,1,2.379,9.048h.251a33.118,33.118,0,0,1,.673-3.475q.548-2.347,6.528-25.266h5.385L191.456,70.3Z"/>
      <path id="Path_2834" data-name="Path 2834" class="cls-2" d="M225.115,70.3l-1.033-4.884h-.25a14.446,14.446,0,0,1-5.119,4.368,15.626,15.626,0,0,1-6.372,1.142q-5.1,0-8-2.63t-2.9-7.482q0-10.4,16.626-10.9l5.823-.189V47.6q0-4.038-1.738-5.964T216.6,39.712a22.648,22.648,0,0,0-9.706,2.63l-1.6-3.976a24.437,24.437,0,0,1,5.557-2.16,24.056,24.056,0,0,1,6.058-.783q6.136,0,9.1,2.724t2.959,8.735V70.3Zm-11.741-3.663A10.544,10.544,0,0,0,221,63.977a9.846,9.846,0,0,0,2.771-7.452v-3.1l-5.2.219q-6.2.219-8.939,1.925a5.808,5.808,0,0,0-2.74,5.308,5.353,5.353,0,0,0,1.707,4.289,7.081,7.081,0,0,0,4.775,1.472Z"/>
      <path id="Path_2835" data-name="Path 2835" class="cls-2" d="M264.6,35.987v3.287l-6.356.751a11.16,11.16,0,0,1,2.255,6.857,10.144,10.144,0,0,1-3.444,8.046q-3.444,3.006-9.456,3.006a15.734,15.734,0,0,1-2.88-.25Q241.4,59.438,241.4,62.1a2.24,2.24,0,0,0,1.159,2.082,8.454,8.454,0,0,0,3.976.674h6.074q5.573,0,8.563,2.348a8.158,8.158,0,0,1,2.99,6.825,9.743,9.743,0,0,1-4.571,8.688q-4.572,2.991-13.338,2.991-6.732,0-10.379-2.5a8.087,8.087,0,0,1-3.647-7.076,7.944,7.944,0,0,1,2-5.416,10.206,10.206,0,0,1,5.636-3.1,5.439,5.439,0,0,1-2.207-1.848,4.882,4.882,0,0,1-.893-2.911,5.527,5.527,0,0,1,1-3.288,10.545,10.545,0,0,1,3.162-2.724,9.267,9.267,0,0,1-4.336-3.725,10.948,10.948,0,0,1-1.675-6.012q0-5.635,3.382-8.688t9.58-3.053a17.4,17.4,0,0,1,4.853.627ZM237.233,76.062a4.661,4.661,0,0,0,2.348,4.228,12.974,12.974,0,0,0,6.732,1.439q6.543,0,9.69-1.956a5.993,5.993,0,0,0,3.147-5.308q0-2.787-1.723-3.866t-6.481-1.08h-6.23a8.2,8.2,0,0,0-5.51,1.691,6.038,6.038,0,0,0-1.973,4.852Zm2.818-29.086a6.986,6.986,0,0,0,2.035,5.448,8.123,8.123,0,0,0,5.667,1.847q7.608,0,7.608-7.389,0-7.733-7.7-7.733a7.62,7.62,0,0,0-5.635,1.973q-1.976,1.971-1.975,5.854Z"/>
      <path id="Path_2836" data-name="Path 2836" class="cls-2" d="M299.136,35.987v3.287l-6.356.751a11.168,11.168,0,0,1,2.254,6.857,10.141,10.141,0,0,1-3.444,8.046q-3.444,3.006-9.455,3.006a15.734,15.734,0,0,1-2.88-.25q-3.32,1.754-3.319,4.414a2.241,2.241,0,0,0,1.158,2.082,8.457,8.457,0,0,0,3.976.674h6.074q5.574,0,8.563,2.348a8.158,8.158,0,0,1,2.99,6.825,9.743,9.743,0,0,1-4.571,8.688q-4.57,2.991-13.337,2.991-6.732,0-10.379-2.5a8.088,8.088,0,0,1-3.648-7.076,7.944,7.944,0,0,1,2-5.416,10.2,10.2,0,0,1,5.636-3.1,5.442,5.442,0,0,1-2.208-1.848,4.881,4.881,0,0,1-.892-2.911,5.527,5.527,0,0,1,1-3.288,10.546,10.546,0,0,1,3.162-2.724,9.263,9.263,0,0,1-4.336-3.725,10.948,10.948,0,0,1-1.675-6.012q0-5.635,3.381-8.688t9.581-3.053a17.4,17.4,0,0,1,4.853.627ZM271.772,76.062a4.659,4.659,0,0,0,2.348,4.228,12.97,12.97,0,0,0,6.731,1.439q6.544,0,9.691-1.956a5.994,5.994,0,0,0,3.146-5.308q0-2.787-1.722-3.866t-6.481-1.08h-6.23a8.2,8.2,0,0,0-5.511,1.691,6.037,6.037,0,0,0-1.972,4.852Zm2.818-29.086a6.986,6.986,0,0,0,2.035,5.448,8.121,8.121,0,0,0,5.667,1.847q7.607,0,7.608-7.389,0-7.733-7.7-7.733a7.622,7.622,0,0,0-5.635,1.973q-1.975,1.971-1.975,5.854Z"/>
      <path id="Path_2837" data-name="Path 2837" class="cls-2" d="M316.778,70.927q-7.608,0-12.007-4.633t-4.4-12.868q0-8.3,4.086-13.181a13.574,13.574,0,0,1,10.974-4.885,12.939,12.939,0,0,1,10.207,4.24q3.762,4.245,3.762,11.2v3.289H305.757q.156,6.042,3.053,9.173t8.156,3.131a27.633,27.633,0,0,0,10.958-2.317V68.71a27.572,27.572,0,0,1-5.213,1.706A29.33,29.33,0,0,1,316.778,70.927Zm-1.409-31.215a8.49,8.49,0,0,0-6.591,2.693,12.414,12.414,0,0,0-2.9,7.452h17.94q0-4.916-2.191-7.53a7.715,7.715,0,0,0-6.258-2.615Z"/>
      <path id="Path_2838" data-name="Path 2838" class="cls-2" d="M350.9,35.36a20.376,20.376,0,0,1,4.1.376l-.721,4.822a17.712,17.712,0,0,0-3.757-.47,9.144,9.144,0,0,0-7.122,3.381,12.33,12.33,0,0,0-2.959,8.423V70.3h-5.2V35.987h4.29l.6,6.355h.25a15.081,15.081,0,0,1,4.6-5.166A10.364,10.364,0,0,1,350.9,35.36Z"/>
      <path id="Path_2839" data-name="Path 2839" class="cls-2" d="M255.857,96.638s-3.43-.391-4.85-.391c-2.058,0-3.111.735-3.111,2.18,0,1.568.882,1.935,3.748,2.719,3.527.98,4.8,1.911,4.8,4.777,0,3.675-2.3,5.267-5.61,5.267a35.687,35.687,0,0,1-5.487-.662l.27-2.18s3.306.441,5.046.441c2.082,0,3.037-.931,3.037-2.7,0-1.421-.759-1.91-3.331-2.523-3.626-.93-5.193-2.033-5.193-4.948,0-3.381,2.229-4.776,5.585-4.776a37.2,37.2,0,0,1,5.315.587Z"/>
      <path id="Path_2840" data-name="Path 2840" class="cls-2" d="M262.967,94.14H267.7l3.748,13.106L275.2,94.14h4.752v16.78H277.2V96.42h-.145l-4.191,13.816h-2.842L265.831,96.42h-.145v14.5h-2.719Z"/>
      <path id="Path_2841" data-name="Path 2841" class="cls-2" d="M322.057,94.14H334.3v2.425h-4.728V110.92h-2.743V96.565h-4.777Z"/>
      <path id="Path_2842" data-name="Path 2842" class="cls-2" d="M346.137,94.14c3.332,0,5.12,1.249,5.12,4.361,0,2.033-.637,3.037-1.984,3.772,1.445.563,2.4,1.592,2.4,3.9,0,3.43-2.081,4.752-5.339,4.752h-6.566V94.14Zm-3.65,2.352v4.8h3.6c1.666,0,2.4-.832,2.4-2.474,0-1.617-.833-2.327-2.5-2.327Zm0,7.1v4.973h3.7c1.689,0,2.694-.539,2.694-2.548,0-1.911-1.421-2.425-2.744-2.425Z"/>
      <path id="Path_2843" data-name="Path 2843" class="cls-2" d="M358.414,94.14H369v2.377h-7.864v4.751h6.394V103.6h-6.394v4.924H369v2.4H358.414Z"/>
      <path id="Path_2844" data-name="Path 2844" class="cls-2" d="M378.747,94.14h5.414l4.164,16.78h-2.744L384.342,106h-5.777l-1.239,4.923h-2.719Zm.361,9.456h4.708l-1.737-7.178h-1.225Z"/>
      <path id="Path_2845" data-name="Path 2845" class="cls-2" d="M397.1,105.947v4.973h-2.719V94.14h6.37c3.7,0,5.683,2.12,5.683,5.843,0,2.376-.956,4.519-2.744,5.352l2.769,5.585H403.47l-2.426-4.973Zm3.651-9.455H397.1v7.1h3.7c2.057,0,2.841-1.85,2.841-3.589,0-1.9-.934-3.511-2.894-3.511Z"/>
      <path id="Path_2846" data-name="Path 2846" class="cls-2" d="M290.013,94.14h5.413l4.164,16.78h-2.743L295.608,106h-5.777l-1.239,4.923h-2.719Zm.361,9.456h4.707l-1.737-7.178h-1.225Z"/>
      <path id="Path_2847" data-name="Path 2847" class="cls-2" d="M308.362,105.947v4.973h-2.719V94.14h6.369c3.7,0,5.683,2.12,5.683,5.843,0,2.376-.955,4.519-2.743,5.352l2.768,5.585h-2.989l-2.425-4.973Zm3.65-9.455h-3.65v7.1h3.7c2.058,0,2.841-1.85,2.841-3.589C314.9,98.1,313.972,96.492,312.012,96.492Z"/>
      <path id="Path_2848" data-name="Path 2848" class="cls-2" d="M130.606,107.643a3.02,3.02,0,0,1-1.18,2.537,5.113,5.113,0,0,1-3.2.91,8.03,8.03,0,0,1-3.371-.564v-1.383a8.793,8.793,0,0,0,1.652.506,8.672,8.672,0,0,0,1.77.186,3.565,3.565,0,0,0,2.157-.544,1.785,1.785,0,0,0,.725-1.512,1.947,1.947,0,0,0-.257-1.05,2.4,2.4,0,0,0-.86-.754,12.171,12.171,0,0,0-1.833-.784,5.842,5.842,0,0,1-2.456-1.458,3.215,3.215,0,0,1-.738-2.2,2.736,2.736,0,0,1,1.071-2.267,4.45,4.45,0,0,1,2.831-.843,8.358,8.358,0,0,1,3.38.674l-.447,1.247a7.653,7.653,0,0,0-2.966-.639,2.878,2.878,0,0,0-1.779.488,1.61,1.61,0,0,0-.64,1.356,2.082,2.082,0,0,0,.236,1.05,2.214,2.214,0,0,0,.8.75,9.878,9.878,0,0,0,1.715.754,6.8,6.8,0,0,1,2.667,1.483,2.919,2.919,0,0,1,.723,2.057Z"/>
      <path id="Path_2849" data-name="Path 2849" class="cls-2" d="M134.447,101.686v5.991a2.411,2.411,0,0,0,.515,1.686,2.09,2.09,0,0,0,1.609.556,2.629,2.629,0,0,0,2.12-.792,4,4,0,0,0,.67-2.587v-4.854h1.4v9.235H139.6l-.2-1.238h-.075a2.793,2.793,0,0,1-1.193,1.045,4.013,4.013,0,0,1-1.74.362,3.529,3.529,0,0,1-2.524-.8,3.409,3.409,0,0,1-.839-2.562v-6.042Z"/>
      <path id="Path_2850" data-name="Path 2850" class="cls-2" d="M148.206,111.09a3.993,3.993,0,0,1-1.647-.333,3.1,3.1,0,0,1-1.252-1.023h-.1a12.265,12.265,0,0,1,.1,1.533v3.8h-1.4V101.686h1.137l.194,1.264h.067a3.257,3.257,0,0,1,1.256-1.1,3.816,3.816,0,0,1,1.643-.337,3.413,3.413,0,0,1,2.836,1.256,6.684,6.684,0,0,1-.017,7.058,3.422,3.422,0,0,1-2.817,1.263Zm-.2-8.384a2.478,2.478,0,0,0-2.048.783,4.039,4.039,0,0,0-.649,2.494v.312a4.631,4.631,0,0,0,.649,2.786,2.472,2.472,0,0,0,2.082.838,2.164,2.164,0,0,0,1.875-.969,4.6,4.6,0,0,0,.678-2.671,4.428,4.428,0,0,0-.678-2.651,2.232,2.232,0,0,0-1.915-.922Z"/>
      <path id="Path_2851" data-name="Path 2851" class="cls-2" d="M159.039,111.09a3.993,3.993,0,0,1-1.647-.333,3.1,3.1,0,0,1-1.252-1.023h-.1a12.265,12.265,0,0,1,.1,1.533v3.8h-1.4V101.686h1.137l.194,1.264h.067a3.257,3.257,0,0,1,1.256-1.1,3.816,3.816,0,0,1,1.643-.337,3.413,3.413,0,0,1,2.836,1.256,6.684,6.684,0,0,1-.017,7.058A3.422,3.422,0,0,1,159.039,111.09Zm-.2-8.384a2.478,2.478,0,0,0-2.048.783,4.039,4.039,0,0,0-.649,2.494v.312a4.631,4.631,0,0,0,.649,2.786,2.472,2.472,0,0,0,2.082.838,2.164,2.164,0,0,0,1.875-.969,4.6,4.6,0,0,0,.678-2.671,4.428,4.428,0,0,0-.678-2.651,2.232,2.232,0,0,0-1.911-.922Z"/>
      <path id="Path_2852" data-name="Path 2852" class="cls-2" d="M173.612,106.3a5.093,5.093,0,0,1-1.137,3.527,4.005,4.005,0,0,1-3.143,1.268,4.163,4.163,0,0,1-2.2-.582,3.832,3.832,0,0,1-1.483-1.668,5.8,5.8,0,0,1-.522-2.545,5.087,5.087,0,0,1,1.129-3.518,3.991,3.991,0,0,1,3.135-1.26,3.91,3.91,0,0,1,3.08,1.289,5.076,5.076,0,0,1,1.141,3.489Zm-7.036,0a4.384,4.384,0,0,0,.708,2.7,2.809,2.809,0,0,0,4.167,0,4.365,4.365,0,0,0,.712-2.7,4.293,4.293,0,0,0-.712-2.675,2.5,2.5,0,0,0-2.1-.914,2.458,2.458,0,0,0-2.072.9,4.336,4.336,0,0,0-.7,2.689Z"/>
      <path id="Path_2853" data-name="Path 2853" class="cls-2" d="M180.525,101.517a5.435,5.435,0,0,1,1.1.1l-.194,1.3a4.779,4.779,0,0,0-1.011-.126,2.459,2.459,0,0,0-1.917.91,3.316,3.316,0,0,0-.8,2.266v4.955h-1.4v-9.235h1.154l.16,1.71h.068a4.067,4.067,0,0,1,1.238-1.391A2.794,2.794,0,0,1,180.525,101.517Z"/>
      <path id="Path_2854" data-name="Path 2854" class="cls-2" d="M187.363,109.936a4.506,4.506,0,0,0,.716-.055,4.785,4.785,0,0,0,.548-.114v1.07a2.5,2.5,0,0,1-.67.181,5,5,0,0,1-.8.072q-2.68,0-2.68-2.823v-5.494h-1.323V102.1l1.323-.581.59-1.972h.809v2.141h2.68v1.087h-2.68v5.436a1.87,1.87,0,0,0,.4,1.28,1.377,1.377,0,0,0,1.087.445Z"/>
      <path id="Path_2855" data-name="Path 2855" class="cls-2" d="M194.538,111.09a4.243,4.243,0,0,1-3.231-1.247,4.827,4.827,0,0,1-1.184-3.464,5.356,5.356,0,0,1,1.1-3.547,3.655,3.655,0,0,1,2.954-1.315,3.484,3.484,0,0,1,2.747,1.142,4.375,4.375,0,0,1,1.011,3.012v.885h-6.362a3.662,3.662,0,0,0,.822,2.47,2.843,2.843,0,0,0,2.2.843,7.431,7.431,0,0,0,2.949-.624v1.247a7.307,7.307,0,0,1-1.4.459,7.863,7.863,0,0,1-1.6.139Zm-.379-8.4a2.283,2.283,0,0,0-1.774.726,3.331,3.331,0,0,0-.779,2h4.828a3.072,3.072,0,0,0-.59-2.027,2.076,2.076,0,0,0-1.685-.7Z"/>
      <path id="Path_2856" data-name="Path 2856" class="cls-2" d="M206.951,109.683h-.076a3.285,3.285,0,0,1-2.9,1.407,3.43,3.43,0,0,1-2.819-1.239,5.452,5.452,0,0,1-1.006-3.522,5.54,5.54,0,0,1,1.011-3.548,3.4,3.4,0,0,1,2.814-1.264,3.361,3.361,0,0,1,2.883,1.365h.109l-.059-.666-.034-.648V97.809h1.4v13.112h-1.138Zm-2.8.236a2.548,2.548,0,0,0,2.078-.78,3.942,3.942,0,0,0,.644-2.515v-.3a4.638,4.638,0,0,0-.653-2.8,2.481,2.481,0,0,0-2.086-.839,2.14,2.14,0,0,0-1.883.957,4.76,4.76,0,0,0-.653,2.7,4.552,4.552,0,0,0,.649,2.671,2.194,2.194,0,0,0,1.906.906Z"/>
      <path id="Path_2857" data-name="Path 2857" class="cls-2" d="M220.712,101.534a3.435,3.435,0,0,1,2.827,1.243,6.655,6.655,0,0,1-.009,7.054,3.419,3.419,0,0,1-2.818,1.259,4,4,0,0,1-1.648-.333,3.094,3.094,0,0,1-1.251-1.023h-.1l-.295,1.187h-1V97.809h1.4V101c0,.714-.023,1.353-.068,1.921h.068a3.322,3.322,0,0,1,2.894-1.387Zm-.2,1.172a2.44,2.44,0,0,0-2.064.821,6.341,6.341,0,0,0,.017,5.554,2.469,2.469,0,0,0,2.081.838,2.158,2.158,0,0,0,1.922-.94,4.828,4.828,0,0,0,.632-2.7,4.645,4.645,0,0,0-.632-2.689,2.244,2.244,0,0,0-1.959-.884Z"/>
      <path id="Path_2858" data-name="Path 2858" class="cls-2" d="M225.758,101.686h1.5l2.023,5.267a20.24,20.24,0,0,1,.826,2.6h.067q.109-.429.459-1.47t2.288-6.4h1.5L230.452,112.2a5.253,5.253,0,0,1-1.378,2.212,2.932,2.932,0,0,1-1.934.653,5.6,5.6,0,0,1-1.264-.144V113.8a4.771,4.771,0,0,0,1.037.1,2.136,2.136,0,0,0,2.056-1.618l.514-1.315Z"/>
    </g>
  </g>
</svg>
