<svg xmlns="http://www.w3.org/2000/svg" xmlns:xlink="http://www.w3.org/1999/xlink" viewBox="0 0 623 116">
  <defs>
    <style>
      .cls-1 {
        clip-path: url(#clip-SWC_TM-logo-clr);
      }

      .cls-2 {
        fill: #173647;
      }

      .cls-3 {
        fill: #85ea2d;
      }
    </style>
    <clipPath id="clip-SWC_TM-logo-clr">
      <rect width="623" height="116"/>
    </clipPath>
  </defs>
  <g id="SWC_TM-logo-clr" class="cls-1">
    <g id="SWC_Full-CLR">
      <path id="Path_2897" data-name="Path 2897" class="cls-2" d="M616.076,71.29h-.7V67.607h-1.26v-.6h3.22v.6h-1.26Z"/>
      <path id="Path_2898" data-name="Path 2898" class="cls-2" d="M620.144,71.29,618.9,67.712h-.024q.049.8.05,1.5V71.29h-.636V67.006h.987l1.19,3.408h.017l1.225-3.408h.99V71.29h-.674V69.171c0-.212,0-.49.016-.832s.021-.548.028-.621h-.023L620.76,71.29Z"/>
      <path id="Path_2899" data-name="Path 2899" class="cls-3" d="M50.027,97.669A47.642,47.642,0,1,1,97.67,50.027,47.642,47.642,0,0,1,50.027,97.669Z"/>
      <path id="Path_2900" data-name="Path 2900" class="cls-2" d="M50.027,4.769A45.258,45.258,0,1,1,4.769,50.027,45.258,45.258,0,0,1,50.027,4.769m0-4.769a50.027,50.027,0,1,0,50.027,50.027A50.027,50.027,0,0,0,50.027,0Z"/>
      <path id="Path_2901" data-name="Path 2901" class="cls-2" d="M31.5,33.854c-.154,1.712.058,3.482-.057,5.213a42.665,42.665,0,0,1-.693,5.156,9.532,9.532,0,0,1-4.1,5.829c4.078,2.654,4.539,6.771,4.809,10.946.135,2.25.077,4.52.308,6.752.173,1.731.846,2.174,2.636,2.231.731.02,1.48,0,2.327,0V75.33c-5.29.9-9.657-.6-10.734-5.079a30.76,30.76,0,0,1-.654-5c-.116-1.789.076-3.578-.058-5.367-.385-4.906-1.02-6.56-5.713-6.791v-6.1a9.189,9.189,0,0,1,1.019-.173c2.577-.135,3.674-.924,4.232-3.463a29.573,29.573,0,0,0,.481-4.329,81.809,81.809,0,0,1,.6-8.406c.674-3.982,3.136-5.906,7.234-6.137,1.154-.057,2.327,0,3.655,0v5.464c-.558.038-1.039.115-1.539.115C31.925,29.949,31.751,31.084,31.5,33.854Zm6.407,12.658H37.83a3.515,3.515,0,1,0-.347,7.021h.231a3.461,3.461,0,0,0,3.655-3.251V50.09a3.523,3.523,0,0,0-3.461-3.578Zm12.061,0a3.373,3.373,0,0,0-3.482,3.251,1.79,1.79,0,0,0,.02.327,3.3,3.3,0,0,0,3.578,3.443,3.264,3.264,0,0,0,3.444-3.558,3.309,3.309,0,0,0-3.559-3.463Zm12.351,0a3.592,3.592,0,0,0-3.655,3.482A3.529,3.529,0,0,0,62.2,53.533h.039c1.769.309,3.559-1.4,3.674-3.462a3.571,3.571,0,0,0-3.593-3.559Zm16.948.288c-2.232-.1-3.348-.846-3.9-2.962a21.523,21.523,0,0,1-.635-4.136c-.154-2.578-.135-5.175-.308-7.753-.4-6.117-4.828-8.252-11.254-7.195v5.31c1.019,0,1.808,0,2.6.019,1.366.019,2.4.539,2.539,2.059.136,1.385.136,2.789.27,4.193.269,2.79.423,5.618.9,8.369A8.715,8.715,0,0,0,73.4,50.052c-3.4,2.289-4.4,5.559-4.578,9.234-.1,2.52-.154,5.059-.289,7.6-.115,2.308-.923,3.058-3.251,3.116-.653.019-1.288.077-2.019.115v5.445c1.366,0,2.616.077,3.866,0,3.886-.231,6.233-2.117,7-5.887A48.9,48.9,0,0,0,74.7,63.4c.135-1.923.116-3.866.309-5.771.288-2.982,1.654-4.213,4.635-4.4a4.037,4.037,0,0,0,.828-.192v-6.1c-.5-.058-.844-.115-1.209-.135Z"/>
      <path id="Path_2902" data-name="Path 2902" class="cls-2" d="M151.972,58.121a11.229,11.229,0,0,1-4.383,9.424q-4.385,3.382-11.9,3.382-8.14,0-12.523-2.1V63.694a32.864,32.864,0,0,0,6.136,1.879,32.3,32.3,0,0,0,6.575.689q5.322,0,8.015-2.02a6.628,6.628,0,0,0,2.693-5.62,7.216,7.216,0,0,0-.955-3.9,8.877,8.877,0,0,0-3.194-2.8,44.659,44.659,0,0,0-6.809-2.911q-6.388-2.286-9.127-5.417a11.955,11.955,0,0,1-2.74-8.172A10.166,10.166,0,0,1,127.738,27q3.977-3.13,10.52-3.131a31,31,0,0,1,12.556,2.5L149.154,31a28.382,28.382,0,0,0-11.021-2.38,10.67,10.67,0,0,0-6.606,1.816,5.985,5.985,0,0,0-2.379,5.041,7.73,7.73,0,0,0,.876,3.9,8.242,8.242,0,0,0,2.959,2.786,36.7,36.7,0,0,0,6.371,2.8q7.2,2.568,9.91,5.51a10.839,10.839,0,0,1,2.708,7.645Z"/>
      <path id="Path_2903" data-name="Path 2903" class="cls-2" d="M184.987,70.3l-6.293-20.132q-.594-1.846-2.222-8.391h-.251q-1.252,5.479-2.192,8.453L167.548,70.3h-6.011l-9.361-34.315h5.448q3.318,12.93,5.056,19.693a79.7,79.7,0,0,1,1.988,9.111h.251q.343-1.784,1.111-4.618t1.331-4.493l6.293-19.693h5.635l6.137,19.693a66.376,66.376,0,0,1,2.379,9.049h.251a33.08,33.08,0,0,1,.673-3.476q.547-2.348,6.528-25.266h5.385L191.155,70.3Z"/>
      <path id="Path_2904" data-name="Path 2904" class="cls-2" d="M224.815,70.3l-1.034-4.885h-.25a14.446,14.446,0,0,1-5.119,4.368,15.6,15.6,0,0,1-6.372,1.143q-5.1,0-8-2.63t-2.9-7.483q0-10.4,16.625-10.9l5.823-.188V47.6q0-4.039-1.737-5.965T216.3,39.712a22.637,22.637,0,0,0-9.706,2.63L205,38.365a24.456,24.456,0,0,1,5.557-2.16,24.107,24.107,0,0,1,6.058-.783q6.137,0,9.1,2.725t2.959,8.734V70.3Zm-11.742-3.663a10.545,10.545,0,0,0,7.624-2.662,9.842,9.842,0,0,0,2.771-7.452v-3.1l-5.2.219q-6.2.219-8.939,1.925a5.81,5.81,0,0,0-2.74,5.307,5.354,5.354,0,0,0,1.707,4.29,7.081,7.081,0,0,0,4.777,1.474Z"/>
      <path id="Path_2905" data-name="Path 2905" class="cls-2" d="M264.3,35.986v3.287l-6.356.751a11.175,11.175,0,0,1,2.254,6.857,10.145,10.145,0,0,1-3.444,8.047q-3.444,3.006-9.455,3.006a15.655,15.655,0,0,1-2.881-.251Q241.1,59.438,241.1,62.1a2.244,2.244,0,0,0,1.159,2.082,8.459,8.459,0,0,0,3.976.673h6.074q5.572,0,8.563,2.348a8.159,8.159,0,0,1,2.99,6.825,9.743,9.743,0,0,1-4.571,8.688q-4.572,2.991-13.338,2.991-6.731,0-10.379-2.5a8.087,8.087,0,0,1-3.647-7.076,7.944,7.944,0,0,1,2-5.416,10.206,10.206,0,0,1,5.636-3.1,5.435,5.435,0,0,1-2.207-1.847,4.887,4.887,0,0,1-.892-2.912,5.524,5.524,0,0,1,1-3.287,10.5,10.5,0,0,1,3.162-2.724,9.266,9.266,0,0,1-4.336-3.726,10.939,10.939,0,0,1-1.676-6.011q0-5.635,3.382-8.689t9.58-3.053a17.4,17.4,0,0,1,4.853.627ZM236.932,76.061a4.662,4.662,0,0,0,2.348,4.228,12.976,12.976,0,0,0,6.732,1.439q6.543,0,9.69-1.956a5.992,5.992,0,0,0,3.147-5.307q0-2.789-1.722-3.867t-6.481-1.08h-6.231a8.2,8.2,0,0,0-5.51,1.691,6.039,6.039,0,0,0-1.973,4.852Zm2.818-29.085a6.985,6.985,0,0,0,2.035,5.447,8.123,8.123,0,0,0,5.667,1.848q7.608,0,7.608-7.39,0-7.733-7.7-7.733a7.624,7.624,0,0,0-5.635,1.973q-1.976,1.973-1.975,5.855Z"/>
      <path id="Path_2906" data-name="Path 2906" class="cls-2" d="M298.835,35.986v3.287l-6.356.751a11.166,11.166,0,0,1,2.255,6.857,10.148,10.148,0,0,1-3.444,8.047q-3.446,3.006-9.456,3.006a15.644,15.644,0,0,1-2.88-.251q-3.32,1.755-3.319,4.415a2.242,2.242,0,0,0,1.159,2.082,8.456,8.456,0,0,0,3.976.673h6.073q5.574,0,8.563,2.348a8.157,8.157,0,0,1,2.991,6.825,9.742,9.742,0,0,1-4.572,8.688q-4.57,2.991-13.337,2.991-6.732,0-10.379-2.5a8.087,8.087,0,0,1-3.647-7.076,7.944,7.944,0,0,1,2-5.416,10.2,10.2,0,0,1,5.636-3.1,5.422,5.422,0,0,1-2.207-1.847A4.881,4.881,0,0,1,271,62.849a5.524,5.524,0,0,1,1-3.287,10.517,10.517,0,0,1,3.162-2.724,9.271,9.271,0,0,1-4.336-3.726,10.947,10.947,0,0,1-1.675-6.011q0-5.635,3.381-8.689t9.581-3.053a17.4,17.4,0,0,1,4.853.627ZM271.471,76.061a4.662,4.662,0,0,0,2.348,4.228,12.97,12.97,0,0,0,6.731,1.439q6.545,0,9.691-1.956a5.991,5.991,0,0,0,3.146-5.307q0-2.789-1.722-3.867t-6.481-1.08h-6.23a8.2,8.2,0,0,0-5.51,1.691,6.039,6.039,0,0,0-1.973,4.852Zm2.818-29.085a6.985,6.985,0,0,0,2.035,5.447,8.121,8.121,0,0,0,5.667,1.848q7.608,0,7.608-7.39,0-7.733-7.7-7.733a7.627,7.627,0,0,0-5.636,1.973q-1.974,1.973-1.974,5.855Z"/>
      <path id="Path_2907" data-name="Path 2907" class="cls-2" d="M316.477,70.927q-7.608,0-12.007-4.634t-4.4-12.868q0-8.3,4.086-13.181a13.574,13.574,0,0,1,10.974-4.885A12.943,12.943,0,0,1,325.338,39.6q3.756,4.244,3.757,11.193v3.288H305.457q.156,6.042,3.052,9.173t8.156,3.131a27.629,27.629,0,0,0,10.958-2.317V68.7a27.572,27.572,0,0,1-5.213,1.706,29.243,29.243,0,0,1-5.933.521Zm-1.408-31.215a8.486,8.486,0,0,0-6.591,2.692,12.41,12.41,0,0,0-2.9,7.451h17.94q0-4.914-2.192-7.529a7.713,7.713,0,0,0-6.257-2.614Z"/>
      <path id="Path_2908" data-name="Path 2908" class="cls-2" d="M350.6,35.359a20.376,20.376,0,0,1,4.1.376l-.72,4.822a17.727,17.727,0,0,0-3.758-.47,9.142,9.142,0,0,0-7.122,3.382,12.326,12.326,0,0,0-2.959,8.422V70.3h-5.2V35.986h4.289l.6,6.356h.25a15.072,15.072,0,0,1,4.6-5.166,10.357,10.357,0,0,1,5.92-1.817Z"/>
      <path id="Path_2909" data-name="Path 2909" class="cls-2" d="M390.139,28.628q-7.545,0-11.913,5.025t-4.367,13.761q0,8.985,4.21,13.885t12.008,4.9A41.006,41.006,0,0,0,401,64.477v4.665a33.647,33.647,0,0,1-11.741,1.785q-10.113,0-15.608-6.137T368.16,47.351a27.519,27.519,0,0,1,2.646-12.4,18.985,18.985,0,0,1,7.639-8.2A23.131,23.131,0,0,1,390.2,23.869a28.369,28.369,0,0,1,12.586,2.63l-2.254,4.571a24.262,24.262,0,0,0-10.393-2.442Z"/>
      <path id="Path_2910" data-name="Path 2910" class="cls-2" d="M435.935,53.112q0,8.391-4.227,13.1t-11.679,4.712a15.466,15.466,0,0,1-8.171-2.16,14.26,14.26,0,0,1-5.511-6.2,21.6,21.6,0,0,1-1.941-9.455q0-8.39,4.2-13.072t11.647-4.681q7.2,0,11.443,4.791T435.935,53.112Zm-26.143,0q0,6.574,2.63,10.019t7.733,3.444q5.1,0,7.749-3.428t2.645-10.035q0-6.543-2.645-9.941t-7.812-3.4q-5.1,0-7.7,3.35T409.792,53.112Z"/>
      <path id="Path_2911" data-name="Path 2911" class="cls-2" d="M465.613,65.7h-.282q-3.6,5.229-10.77,5.229-6.732,0-10.473-4.6t-3.741-13.087q0-8.484,3.757-13.181t10.457-4.7q6.981,0,10.708,5.073h.407l-.219-2.474-.126-2.41V21.584h5.2V70.3H466.3Zm-10.395.877q5.323,0,7.718-2.9t2.4-9.346v-1.1q0-7.294-2.426-10.41t-7.749-3.115a7.957,7.957,0,0,0-7,3.553q-2.426,3.555-2.426,10.035,0,6.575,2.411,9.925a8.161,8.161,0,0,0,7.072,3.356Z"/>
      <path id="Path_2912" data-name="Path 2912" class="cls-2" d="M492.968,70.927q-7.608,0-12.008-4.634t-4.4-12.868q0-8.3,4.086-13.181a13.57,13.57,0,0,1,10.973-4.885A12.943,12.943,0,0,1,501.828,39.6q3.758,4.244,3.757,11.193v3.288H481.946q.157,6.042,3.053,9.173t8.156,3.131a27.629,27.629,0,0,0,10.958-2.317V68.7a27.537,27.537,0,0,1-5.213,1.71,29.258,29.258,0,0,1-5.932.517Zm-1.409-31.215a8.489,8.489,0,0,0-6.591,2.692,12.41,12.41,0,0,0-2.9,7.451h17.94q0-4.914-2.192-7.529a7.711,7.711,0,0,0-6.257-2.614Z"/>
      <path id="Path_2913" data-name="Path 2913" class="cls-2" d="M539.67,35.986v3.287l-6.355.751a11.175,11.175,0,0,1,2.254,6.857,10.145,10.145,0,0,1-3.445,8.047q-3.444,3.006-9.455,3.006a15.671,15.671,0,0,1-2.881-.251q-3.318,1.755-3.318,4.415a2.243,2.243,0,0,0,1.158,2.082,8.464,8.464,0,0,0,3.977.673h6.074q5.573,0,8.562,2.348a8.157,8.157,0,0,1,2.991,6.825,9.742,9.742,0,0,1-4.572,8.688Q530.088,85.7,521.322,85.7q-6.731,0-10.378-2.5a8.088,8.088,0,0,1-3.648-7.076,7.943,7.943,0,0,1,2-5.416,10.2,10.2,0,0,1,5.636-3.1,5.422,5.422,0,0,1-2.207-1.847,4.887,4.887,0,0,1-.893-2.912,5.524,5.524,0,0,1,1-3.287A10.516,10.516,0,0,1,516,56.838a9.271,9.271,0,0,1-4.336-3.726,10.947,10.947,0,0,1-1.675-6.011q0-5.635,3.381-8.689t9.581-3.053a17.405,17.405,0,0,1,4.853.627ZM512.306,76.061a4.662,4.662,0,0,0,2.348,4.228,12.974,12.974,0,0,0,6.732,1.439q6.542,0,9.689-1.956a5.992,5.992,0,0,0,3.147-5.307q0-2.789-1.722-3.867t-6.48-1.08h-6.232a8.2,8.2,0,0,0-5.51,1.691A6.039,6.039,0,0,0,512.306,76.061Zm2.817-29.085a6.988,6.988,0,0,0,2.035,5.447,8.126,8.126,0,0,0,5.667,1.848q7.61,0,7.609-7.39,0-7.733-7.7-7.733a7.625,7.625,0,0,0-5.636,1.973q-1.975,1.973-1.975,5.855Z"/>
      <path id="Path_2914" data-name="Path 2914" class="cls-2" d="M557.313,70.927q-7.609,0-12.008-4.634t-4.4-12.868q0-8.3,4.086-13.181a13.574,13.574,0,0,1,10.974-4.885A12.943,12.943,0,0,1,566.173,39.6q3.757,4.244,3.757,11.193v3.288H546.291q.157,6.042,3.053,9.173t8.156,3.131a27.633,27.633,0,0,0,10.958-2.317V68.7a27.551,27.551,0,0,1-5.213,1.706A29.242,29.242,0,0,1,557.313,70.927ZM555.9,39.712a8.487,8.487,0,0,0-6.59,2.692,12.41,12.41,0,0,0-2.9,7.451h17.94q0-4.914-2.192-7.529a7.714,7.714,0,0,0-6.258-2.614Z"/>
      <path id="Path_2915" data-name="Path 2915" class="cls-2" d="M599.258,70.3V48.1q0-4.2-1.91-6.262t-5.98-2.067q-5.386,0-7.889,2.912t-2.5,9.612v18h-5.2V35.986H580l.845,4.7h.251a10.6,10.6,0,0,1,4.477-3.929,14.541,14.541,0,0,1,6.418-1.394q6.2,0,9.33,2.991t3.131,9.565V70.3Z"/>
      <path id="Path_2916" data-name="Path 2916" class="cls-2" d="M255.556,96.638s-3.43-.391-4.85-.391c-2.058,0-3.111.735-3.111,2.18,0,1.568.882,1.935,3.748,2.719,3.527.98,4.8,1.911,4.8,4.777,0,3.675-2.3,5.267-5.61,5.267a35.667,35.667,0,0,1-5.486-.662l.269-2.18s3.307.441,5.046.441c2.082,0,3.037-.931,3.037-2.7,0-1.421-.759-1.91-3.331-2.523-3.626-.93-5.193-2.033-5.193-4.948,0-3.381,2.229-4.776,5.585-4.776a37.222,37.222,0,0,1,5.316.587Z"/>
      <path id="Path_2917" data-name="Path 2917" class="cls-2" d="M262.666,94.14h4.728l3.748,13.106L274.89,94.14h4.752v16.78H276.9V96.42h-.144l-4.192,13.816h-2.841L265.53,96.418h-.145v14.5h-2.719Z"/>
      <path id="Path_2918" data-name="Path 2918" class="cls-2" d="M321.756,94.14H334v2.425h-4.728V110.92h-2.743V96.565h-4.777Z"/>
      <path id="Path_2919" data-name="Path 2919" class="cls-2" d="M345.837,94.14c3.331,0,5.119,1.249,5.119,4.361,0,2.033-.636,3.037-1.984,3.772,1.445.563,2.4,1.592,2.4,3.9,0,3.43-2.082,4.752-5.34,4.752h-6.566V94.14Zm-3.651,2.352v4.8h3.6c1.667,0,2.4-.832,2.4-2.474,0-1.617-.833-2.327-2.5-2.327Zm0,7.1v4.973h3.7c1.689,0,2.694-.539,2.694-2.548,0-1.911-1.421-2.425-2.743-2.425Z"/>
      <path id="Path_2920" data-name="Path 2920" class="cls-2" d="M358.113,94.14H368.7v2.377h-7.864v4.751h6.394V103.6h-6.394v4.924H368.7v2.4H358.113Z"/>
      <path id="Path_2921" data-name="Path 2921" class="cls-2" d="M378.446,94.14h5.414l4.164,16.78h-2.743l-1.24-4.92h-5.777l-1.239,4.923h-2.719Zm.362,9.456h4.707l-1.737-7.178h-1.225Z"/>
      <path id="Path_2922" data-name="Path 2922" class="cls-2" d="M396.8,105.947v4.973h-2.72V94.14h6.37c3.7,0,5.683,2.12,5.683,5.843,0,2.376-.956,4.519-2.744,5.352l2.769,5.585h-2.989l-2.425-4.973Zm3.65-9.455H396.8v7.1h3.7c2.058,0,2.841-1.85,2.841-3.589-.005-1.9-.935-3.511-2.895-3.511Z"/>
      <path id="Path_2923" data-name="Path 2923" class="cls-2" d="M289.712,94.14h5.413l4.165,16.78h-2.744L295.307,106H289.53l-1.239,4.923h-2.719Zm.361,9.456h4.707l-1.737-7.178h-1.224Z"/>
      <path id="Path_2924" data-name="Path 2924" class="cls-2" d="M308.061,105.947v4.973h-2.719V94.14h6.369c3.7,0,5.683,2.12,5.683,5.843,0,2.376-.955,4.519-2.743,5.352l2.768,5.585h-2.988l-2.426-4.973Zm3.65-9.455h-3.65v7.1h3.7c2.057,0,2.841-1.85,2.841-3.589C314.6,98.1,313.671,96.492,311.711,96.492Z"/>
      <path id="Path_2925" data-name="Path 2925" class="cls-2" d="M130.3,107.643a3.021,3.021,0,0,1-1.179,2.536,5.116,5.116,0,0,1-3.2.91,8.033,8.033,0,0,1-3.371-.564v-1.382a8.89,8.89,0,0,0,1.652.5,8.671,8.671,0,0,0,1.77.186,3.57,3.57,0,0,0,2.158-.544,1.784,1.784,0,0,0,.724-1.512,1.943,1.943,0,0,0-.257-1.049,2.4,2.4,0,0,0-.86-.755,12.081,12.081,0,0,0-1.833-.784,5.849,5.849,0,0,1-2.456-1.458,3.218,3.218,0,0,1-.737-2.2,2.735,2.735,0,0,1,1.07-2.267,4.45,4.45,0,0,1,2.831-.843,8.341,8.341,0,0,1,3.38.675l-.447,1.247a7.633,7.633,0,0,0-2.966-.64,2.88,2.88,0,0,0-1.779.488,1.614,1.614,0,0,0-.64,1.357,2.081,2.081,0,0,0,.236,1.049,2.214,2.214,0,0,0,.8.75,9.946,9.946,0,0,0,1.715.755,6.8,6.8,0,0,1,2.667,1.482,2.916,2.916,0,0,1,.722,2.063Z"/>
      <path id="Path_2926" data-name="Path 2926" class="cls-2" d="M134.147,101.685v5.991a2.411,2.411,0,0,0,.514,1.686,2.091,2.091,0,0,0,1.609.556,2.629,2.629,0,0,0,2.12-.792,4,4,0,0,0,.67-2.587v-4.854h1.4v9.236H139.3l-.2-1.239h-.076a2.8,2.8,0,0,1-1.192,1.045,4.006,4.006,0,0,1-1.741.362,3.529,3.529,0,0,1-2.524-.8,3.409,3.409,0,0,1-.838-2.562v-6.042Z"/>
      <path id="Path_2927" data-name="Path 2927" class="cls-2" d="M147.9,111.089a3.98,3.98,0,0,1-1.647-.333,3.094,3.094,0,0,1-1.251-1.023h-.1a12.272,12.272,0,0,1,.1,1.534v3.8h-1.4V101.685h1.137l.194,1.264h.068a3.236,3.236,0,0,1,1.255-1.1,3.816,3.816,0,0,1,1.643-.338,3.412,3.412,0,0,1,2.836,1.256,6.684,6.684,0,0,1-.017,7.058,3.42,3.42,0,0,1-2.818,1.259Zm-.2-8.384a2.481,2.481,0,0,0-2.048.783,4.035,4.035,0,0,0-.648,2.494v.312a4.63,4.63,0,0,0,.648,2.786,2.469,2.469,0,0,0,2.082.838,2.164,2.164,0,0,0,1.875-.969,4.6,4.6,0,0,0,.679-2.671,4.428,4.428,0,0,0-.679-2.651,2.23,2.23,0,0,0-1.914-.922Z"/>
      <path id="Path_2928" data-name="Path 2928" class="cls-2" d="M158.738,111.089a3.98,3.98,0,0,1-1.647-.333,3.094,3.094,0,0,1-1.251-1.023h-.1a12.275,12.275,0,0,1,.1,1.534v3.8h-1.4V101.685h1.137l.194,1.264h.068a3.236,3.236,0,0,1,1.255-1.1,3.816,3.816,0,0,1,1.643-.338,3.412,3.412,0,0,1,2.836,1.256,6.684,6.684,0,0,1-.017,7.058,3.42,3.42,0,0,1-2.818,1.259Zm-.2-8.384a2.481,2.481,0,0,0-2.048.783,4.035,4.035,0,0,0-.648,2.494v.312a4.63,4.63,0,0,0,.648,2.786,2.469,2.469,0,0,0,2.082.838,2.164,2.164,0,0,0,1.875-.969,4.6,4.6,0,0,0,.679-2.671,4.428,4.428,0,0,0-.679-2.651,2.23,2.23,0,0,0-1.911-.922Z"/>
      <path id="Path_2929" data-name="Path 2929" class="cls-2" d="M173.312,106.294a5.092,5.092,0,0,1-1.138,3.527,4,4,0,0,1-3.143,1.268,4.163,4.163,0,0,1-2.2-.581,3.84,3.84,0,0,1-1.483-1.669,5.814,5.814,0,0,1-.522-2.545,5.087,5.087,0,0,1,1.129-3.518,4,4,0,0,1,3.135-1.26,3.907,3.907,0,0,1,3.08,1.29A5.072,5.072,0,0,1,173.312,106.294Zm-7.037,0a4.384,4.384,0,0,0,.708,2.7,2.809,2.809,0,0,0,4.167,0,4.359,4.359,0,0,0,.712-2.7,4.289,4.289,0,0,0-.712-2.675,2.5,2.5,0,0,0-2.1-.914,2.461,2.461,0,0,0-2.073.9,4.338,4.338,0,0,0-.7,2.689Z"/>
      <path id="Path_2930" data-name="Path 2930" class="cls-2" d="M180.224,101.516a5.507,5.507,0,0,1,1.1.1l-.194,1.3a4.779,4.779,0,0,0-1.011-.126,2.461,2.461,0,0,0-1.917.91,3.32,3.32,0,0,0-.8,2.267v4.955H176v-9.236h1.154l.16,1.711h.068a4.05,4.05,0,0,1,1.239-1.391,2.784,2.784,0,0,1,1.6-.49Z"/>
      <path id="Path_2931" data-name="Path 2931" class="cls-2" d="M187.062,109.935a4.506,4.506,0,0,0,.716-.055,4.563,4.563,0,0,0,.548-.113v1.069a2.528,2.528,0,0,1-.67.182,5.112,5.112,0,0,1-.8.071q-2.68,0-2.68-2.822v-5.5h-1.323V102.1l1.323-.582.59-1.972h.809v2.141h2.68v1.087h-2.68v5.436a1.868,1.868,0,0,0,.4,1.28,1.378,1.378,0,0,0,1.087.445Z"/>
      <path id="Path_2932" data-name="Path 2932" class="cls-2" d="M194.237,111.089a4.239,4.239,0,0,1-3.231-1.247,4.824,4.824,0,0,1-1.184-3.463,5.352,5.352,0,0,1,1.1-3.548,3.652,3.652,0,0,1,2.953-1.315,3.484,3.484,0,0,1,2.747,1.142,4.373,4.373,0,0,1,1.011,3.013v.885h-6.362a3.66,3.66,0,0,0,.822,2.469,2.843,2.843,0,0,0,2.2.843,7.431,7.431,0,0,0,2.949-.624v1.247a7.3,7.3,0,0,1-1.4.459,7.88,7.88,0,0,1-1.605.139Zm-.378-8.4a2.281,2.281,0,0,0-1.774.725,3.328,3.328,0,0,0-.78,2h4.828a3.078,3.078,0,0,0-.589-2.027,2.075,2.075,0,0,0-1.685-.7Z"/>
      <path id="Path_2933" data-name="Path 2933" class="cls-2" d="M206.65,109.682h-.076a3.285,3.285,0,0,1-2.9,1.407,3.426,3.426,0,0,1-2.818-1.238,5.45,5.45,0,0,1-1.007-3.523,5.548,5.548,0,0,1,1.011-3.548,3.4,3.4,0,0,1,2.814-1.264,3.361,3.361,0,0,1,2.883,1.365h.109l-.059-.665-.034-.649V97.809h1.4v13.112h-1.137Zm-2.8.236a2.55,2.55,0,0,0,2.077-.779,3.941,3.941,0,0,0,.644-2.516v-.3a4.638,4.638,0,0,0-.652-2.8,2.481,2.481,0,0,0-2.086-.838,2.14,2.14,0,0,0-1.884.956,4.76,4.76,0,0,0-.653,2.7,4.558,4.558,0,0,0,.649,2.672,2.2,2.2,0,0,0,1.908.9Z"/>
      <path id="Path_2934" data-name="Path 2934" class="cls-2" d="M220.411,101.533a3.434,3.434,0,0,1,2.827,1.243,6.658,6.658,0,0,1-.008,7.054,3.422,3.422,0,0,1-2.819,1.259,3.985,3.985,0,0,1-1.648-.333,3.094,3.094,0,0,1-1.251-1.023h-.1l-.295,1.188h-1V97.809h1.4v3.185q0,1.071-.068,1.921h.068a3.322,3.322,0,0,1,2.894-1.382Zm-.2,1.172a2.446,2.446,0,0,0-2.065.821,6.341,6.341,0,0,0,.017,5.554,2.466,2.466,0,0,0,2.081.838,2.159,2.159,0,0,0,1.922-.939,4.834,4.834,0,0,0,.632-2.7,4.645,4.645,0,0,0-.632-2.689,2.243,2.243,0,0,0-1.957-.885Z"/>
      <path id="Path_2935" data-name="Path 2935" class="cls-2" d="M225.458,101.685h1.5l2.022,5.267a20.191,20.191,0,0,1,.826,2.6h.067q.11-.43.46-1.471t2.287-6.4h1.5L230.152,112.2a5.266,5.266,0,0,1-1.378,2.212,2.933,2.933,0,0,1-1.934.653,5.662,5.662,0,0,1-1.266-.143V113.8a4.844,4.844,0,0,0,1.037.1,2.136,2.136,0,0,0,2.056-1.618l.514-1.314Z"/>
    </g>
  </g>
</svg>
