<svg xmlns="http://www.w3.org/2000/svg" xmlns:xlink="http://www.w3.org/1999/xlink" viewBox="0 0 536 116">
  <defs>
    <style>
      .cls-1 {
        clip-path: url(#clip-SWE_TM-logo-clr);
      }

      .cls-2 {
        fill: #173647;
      }

      .cls-3 {
        fill: #85ea2d;
      }
    </style>
    <clipPath id="clip-SWE_TM-logo-clr">
      <rect width="536" height="116"/>
    </clipPath>
  </defs>
  <g id="SWE_TM-logo-clr" class="cls-1">
    <g id="SWE_Full-CLR">
      <path id="Path_2859" data-name="Path 2859" class="cls-2" d="M528.911,70.858h-.7V67.175h-1.26v-.6h3.219v.6h-1.26Z"/>
      <path id="Path_2860" data-name="Path 2860" class="cls-2" d="M532.979,70.858l-1.242-3.577h-.023q.049.8.05,1.494v2.083h-.636V66.575h.987l1.19,3.407h.017l1.225-3.407h.99v4.283h-.674V68.74q0-.319.016-.832t.028-.621h-.023L533.6,70.858Z"/>
      <path id="Path_2861" data-name="Path 2861" class="cls-3" d="M50.027,97.669A47.642,47.642,0,1,1,97.67,50.027,47.642,47.642,0,0,1,50.027,97.669Z"/>
      <path id="Path_2862" data-name="Path 2862" class="cls-2" d="M50.027,4.769A45.258,45.258,0,1,1,4.769,50.027,45.258,45.258,0,0,1,50.027,4.769m0-4.769a50.027,50.027,0,1,0,50.027,50.027A50.027,50.027,0,0,0,50.027,0Z"/>
      <path id="Path_2863" data-name="Path 2863" class="cls-2" d="M31.5,33.854c-.154,1.712.058,3.482-.057,5.213a42.665,42.665,0,0,1-.693,5.156,9.532,9.532,0,0,1-4.1,5.829c4.078,2.654,4.539,6.771,4.809,10.946.135,2.25.077,4.52.308,6.752.173,1.731.846,2.174,2.636,2.231.731.02,1.48,0,2.327,0V75.33c-5.29.9-9.657-.6-10.734-5.079a30.76,30.76,0,0,1-.654-5c-.116-1.789.076-3.578-.058-5.367-.385-4.906-1.02-6.56-5.713-6.791v-6.1a9.189,9.189,0,0,1,1.019-.173c2.577-.135,3.674-.924,4.232-3.463a29.573,29.573,0,0,0,.481-4.329,81.809,81.809,0,0,1,.6-8.406c.674-3.982,3.136-5.906,7.234-6.137,1.154-.057,2.327,0,3.655,0v5.464c-.558.038-1.039.115-1.539.115C31.925,29.949,31.751,31.084,31.5,33.854Zm6.407,12.658H37.83a3.515,3.515,0,1,0-.347,7.021h.231a3.461,3.461,0,0,0,3.655-3.251V50.09a3.523,3.523,0,0,0-3.461-3.578Zm12.061,0a3.373,3.373,0,0,0-3.482,3.251,1.79,1.79,0,0,0,.02.327,3.3,3.3,0,0,0,3.578,3.443,3.264,3.264,0,0,0,3.444-3.558,3.309,3.309,0,0,0-3.559-3.463Zm12.351,0a3.592,3.592,0,0,0-3.655,3.482A3.529,3.529,0,0,0,62.2,53.533h.039c1.769.309,3.559-1.4,3.674-3.462a3.571,3.571,0,0,0-3.593-3.559Zm16.948.288c-2.232-.1-3.348-.846-3.9-2.962a21.523,21.523,0,0,1-.635-4.136c-.154-2.578-.135-5.175-.308-7.753-.4-6.117-4.828-8.252-11.254-7.195v5.31c1.019,0,1.808,0,2.6.019,1.366.019,2.4.539,2.539,2.059.136,1.385.136,2.789.27,4.193.269,2.79.423,5.618.9,8.369A8.715,8.715,0,0,0,73.4,50.052c-3.4,2.289-4.4,5.559-4.578,9.234-.1,2.52-.154,5.059-.289,7.6-.115,2.308-.923,3.058-3.251,3.116-.653.019-1.288.077-2.019.115v5.445c1.366,0,2.616.077,3.866,0,3.886-.231,6.233-2.117,7-5.887A48.9,48.9,0,0,0,74.7,63.4c.135-1.923.116-3.866.309-5.771.288-2.982,1.654-4.213,4.635-4.4a4.037,4.037,0,0,0,.828-.192v-6.1c-.5-.058-.844-.115-1.209-.135Z"/>
      <path id="Path_2864" data-name="Path 2864" class="cls-2" d="M151.972,58.121a11.227,11.227,0,0,1-4.383,9.424q-4.385,3.382-11.9,3.382-8.14,0-12.523-2.1V63.7a32.874,32.874,0,0,0,6.137,1.877,32.211,32.211,0,0,0,6.574.69q5.323,0,8.015-2.02a6.626,6.626,0,0,0,2.693-5.62,7.222,7.222,0,0,0-.955-3.9,8.885,8.885,0,0,0-3.194-2.8,44.8,44.8,0,0,0-6.809-2.912q-6.388-2.284-9.127-5.416a11.959,11.959,0,0,1-2.739-8.172A10.164,10.164,0,0,1,127.739,27q3.976-3.13,10.52-3.131a31,31,0,0,1,12.555,2.5L149.154,31a28.377,28.377,0,0,0-11.02-2.38,10.671,10.671,0,0,0-6.607,1.816,5.985,5.985,0,0,0-2.379,5.041,7.733,7.733,0,0,0,.876,3.9,8.25,8.25,0,0,0,2.959,2.786,36.665,36.665,0,0,0,6.371,2.8q7.2,2.568,9.91,5.511a10.839,10.839,0,0,1,2.708,7.644Z"/>
      <path id="Path_2865" data-name="Path 2865" class="cls-2" d="M184.988,70.3,178.7,50.169q-.6-1.846-2.223-8.391h-.25q-1.254,5.479-2.192,8.454L167.549,70.3h-6.012l-9.361-34.314h5.448q3.318,12.932,5.056,19.693a79.706,79.706,0,0,1,1.988,9.111h.251q.343-1.785,1.111-4.618t1.331-4.493l6.293-19.693h5.635l6.137,19.693a66.549,66.549,0,0,1,2.38,9.049h.25a33.388,33.388,0,0,1,.673-3.476q.547-2.348,6.528-25.266h5.385L191.156,70.3Z"/>
      <path id="Path_2866" data-name="Path 2866" class="cls-2" d="M224.815,70.3l-1.033-4.884h-.251a14.436,14.436,0,0,1-5.119,4.368,15.6,15.6,0,0,1-6.372,1.143q-5.1,0-8-2.63t-2.9-7.483q0-10.4,16.625-10.9l5.824-.187V47.6q0-4.039-1.738-5.965T216.3,39.712a22.63,22.63,0,0,0-9.706,2.63L205,38.365a24.445,24.445,0,0,1,5.558-2.16,24.1,24.1,0,0,1,6.058-.783q6.137,0,9.1,2.724t2.959,8.735V70.3Zm-11.741-3.663a10.552,10.552,0,0,0,7.624-2.661,9.845,9.845,0,0,0,2.771-7.451v-3.1l-5.2.219q-6.2.219-8.939,1.926a5.806,5.806,0,0,0-2.739,5.306,5.357,5.357,0,0,0,1.706,4.29,7.082,7.082,0,0,0,4.777,1.471Z"/>
      <path id="Path_2867" data-name="Path 2867" class="cls-2" d="M264.3,35.986v3.287l-6.356.752a11.162,11.162,0,0,1,2.254,6.856,10.145,10.145,0,0,1-3.444,8.047q-3.444,3.006-9.455,3a15.745,15.745,0,0,1-2.881-.25Q241.1,59.436,241.1,62.1a2.243,2.243,0,0,0,1.158,2.082,8.459,8.459,0,0,0,3.976.673h6.074q5.572,0,8.563,2.348a8.159,8.159,0,0,1,2.99,6.826,9.744,9.744,0,0,1-4.571,8.687q-4.57,2.989-13.337,2.99-6.732,0-10.379-2.5a8.085,8.085,0,0,1-3.648-7.075,7.947,7.947,0,0,1,2-5.417,10.208,10.208,0,0,1,5.635-3.1,5.435,5.435,0,0,1-2.207-1.847,4.889,4.889,0,0,1-.892-2.912,5.524,5.524,0,0,1,1-3.287,10.517,10.517,0,0,1,3.162-2.724,9.266,9.266,0,0,1-4.336-3.726,10.944,10.944,0,0,1-1.675-6.011q0-5.637,3.381-8.689t9.581-3.052a17.449,17.449,0,0,1,4.853.626ZM236.932,76.061a4.659,4.659,0,0,0,2.349,4.227,12.969,12.969,0,0,0,6.731,1.44q6.543,0,9.691-1.956a6,6,0,0,0,3.146-5.307q0-2.787-1.722-3.867t-6.481-1.08h-6.231a8.207,8.207,0,0,0-5.51,1.69,6.043,6.043,0,0,0-1.973,4.853Zm2.818-29.086a6.985,6.985,0,0,0,2.036,5.448,8.121,8.121,0,0,0,5.667,1.847q7.607,0,7.607-7.389,0-7.733-7.7-7.733a7.624,7.624,0,0,0-5.635,1.972Q239.751,43.094,239.75,46.975Z"/>
      <path id="Path_2868" data-name="Path 2868" class="cls-2" d="M298.835,35.986v3.287l-6.356.752a11.154,11.154,0,0,1,2.255,6.856,10.148,10.148,0,0,1-3.444,8.047q-3.444,3.006-9.456,3.005a15.735,15.735,0,0,1-2.88-.25q-3.32,1.753-3.319,4.415a2.242,2.242,0,0,0,1.159,2.082,8.456,8.456,0,0,0,3.976.673h6.074q5.573,0,8.563,2.348a8.159,8.159,0,0,1,2.99,6.826,9.744,9.744,0,0,1-4.571,8.687q-4.572,2.989-13.338,2.99-6.732,0-10.379-2.5a8.084,8.084,0,0,1-3.647-7.075,7.946,7.946,0,0,1,2-5.417,10.211,10.211,0,0,1,5.636-3.1,5.429,5.429,0,0,1-2.207-1.847A4.89,4.89,0,0,1,271,62.849a5.524,5.524,0,0,1,1-3.287,10.517,10.517,0,0,1,3.162-2.724,9.275,9.275,0,0,1-4.336-3.726,10.944,10.944,0,0,1-1.675-6.011q0-5.637,3.382-8.689t9.58-3.052a17.439,17.439,0,0,1,4.853.626ZM271.471,76.061a4.66,4.66,0,0,0,2.348,4.227,12.973,12.973,0,0,0,6.732,1.44q6.543,0,9.69-1.956a5.994,5.994,0,0,0,3.147-5.307q0-2.787-1.723-3.867t-6.481-1.08h-6.23a8.2,8.2,0,0,0-5.51,1.69A6.043,6.043,0,0,0,271.471,76.061Zm2.818-29.086a6.984,6.984,0,0,0,2.035,5.448,8.123,8.123,0,0,0,5.667,1.847q7.608,0,7.608-7.389,0-7.733-7.7-7.733a7.624,7.624,0,0,0-5.635,1.972Q274.288,43.094,274.289,46.975Z"/>
      <path id="Path_2869" data-name="Path 2869" class="cls-2" d="M316.477,70.927q-7.606,0-12.006-4.634t-4.4-12.868q0-8.3,4.086-13.181A13.569,13.569,0,0,1,315.13,35.36a12.942,12.942,0,0,1,10.208,4.24q3.762,4.246,3.762,11.2v3.287H305.457q.156,6.043,3.052,9.174t8.156,3.131a27.629,27.629,0,0,0,10.958-2.317V68.7a27.47,27.47,0,0,1-5.212,1.706,29.263,29.263,0,0,1-5.934.521Zm-1.408-31.215a8.488,8.488,0,0,0-6.591,2.693,12.4,12.4,0,0,0-2.9,7.451h17.94q0-4.916-2.192-7.53a7.712,7.712,0,0,0-6.257-2.614Z"/>
      <path id="Path_2870" data-name="Path 2870" class="cls-2" d="M350.6,35.36a20.3,20.3,0,0,1,4.1.376l-.72,4.821a17.721,17.721,0,0,0-3.757-.47,9.144,9.144,0,0,0-7.123,3.382,12.326,12.326,0,0,0-2.959,8.422V70.3h-5.2V35.986h4.289l.6,6.356h.251a15.082,15.082,0,0,1,4.6-5.167A10.364,10.364,0,0,1,350.6,35.36Z"/>
      <path id="Path_2871" data-name="Path 2871" class="cls-2" d="M394.454,70.3H368.937V24.527h25.517v4.727H374.26V44h18.973v4.7H374.26V65.541h20.194Z"/>
      <path id="Path_2872" data-name="Path 2872" class="cls-2" d="M423.683,65.7H423.4q-3.6,5.229-10.77,5.229-6.734,0-10.473-4.6t-3.742-13.087q0-8.484,3.757-13.181t10.458-4.7q6.981,0,10.707,5.072h.407l-.219-2.474-.125-2.41V21.584h5.2V70.3h-4.227Zm-10.394.876q5.322,0,7.718-2.9t2.395-9.346v-1.1q0-7.294-2.427-10.41t-7.749-3.115a7.955,7.955,0,0,0-7,3.553Q403.8,46.819,403.8,53.3q0,6.575,2.41,9.925a8.165,8.165,0,0,0,7.079,3.349Z"/>
      <path id="Path_2873" data-name="Path 2873" class="cls-2" d="M435.918,26.687a3.453,3.453,0,0,1,.877-2.615,3.246,3.246,0,0,1,4.351.016,3.388,3.388,0,0,1,.909,2.6,3.438,3.438,0,0,1-.909,2.614,3.179,3.179,0,0,1-4.351,0,3.511,3.511,0,0,1-.877-2.615ZM441.554,70.3h-5.2V35.986h5.2Z"/>
      <path id="Path_2874" data-name="Path 2874" class="cls-2" d="M461.26,66.637a16.951,16.951,0,0,0,2.661-.2,17.341,17.341,0,0,0,2.035-.423v3.977a9.518,9.518,0,0,1-2.489.672,18.635,18.635,0,0,1-2.959.267q-9.955,0-9.956-10.489V40.025h-4.915v-2.5l4.915-2.16,2.191-7.327h3.006v7.953h9.956V40.03h-9.956V60.219a6.943,6.943,0,0,0,1.472,4.759,5.12,5.12,0,0,0,4.039,1.659Z"/>
      <path id="Path_2875" data-name="Path 2875" class="cls-2" d="M499.014,53.112q0,8.391-4.227,13.1t-11.68,4.712a15.469,15.469,0,0,1-8.171-2.161,14.256,14.256,0,0,1-5.51-6.2,21.606,21.606,0,0,1-1.941-9.455q0-8.391,4.2-13.072t11.647-4.68q7.2,0,11.443,4.79T499.014,53.112Zm-26.144,0q0,6.574,2.63,10.019t7.732,3.443q5.1,0,7.75-3.427t2.645-10.035q0-6.543-2.645-9.941t-7.812-3.4q-5.1,0-7.7,3.35T472.87,53.112Z"/>
      <path id="Path_2876" data-name="Path 2876" class="cls-2" d="M520.726,35.36a20.3,20.3,0,0,1,4.1.376l-.721,4.821a17.711,17.711,0,0,0-3.757-.47,9.145,9.145,0,0,0-7.123,3.382,12.335,12.335,0,0,0-2.958,8.422V70.3h-5.2V35.986h4.289l.6,6.356h.251a15.089,15.089,0,0,1,4.6-5.167,10.366,10.366,0,0,1,5.919-1.815Z"/>
      <path id="Path_2877" data-name="Path 2877" class="cls-2" d="M255.556,96.638s-3.43-.391-4.85-.391c-2.058,0-3.111.735-3.111,2.18,0,1.568.882,1.935,3.748,2.719,3.527.98,4.8,1.911,4.8,4.777,0,3.675-2.3,5.267-5.61,5.267a35.667,35.667,0,0,1-5.486-.662l.269-2.18s3.307.441,5.046.441c2.082,0,3.037-.931,3.037-2.7,0-1.421-.759-1.91-3.331-2.523-3.626-.93-5.193-2.033-5.193-4.948,0-3.381,2.229-4.776,5.585-4.776a37.222,37.222,0,0,1,5.316.587Z"/>
      <path id="Path_2878" data-name="Path 2878" class="cls-2" d="M262.666,94.14h4.728l3.748,13.106L274.89,94.14h4.752v16.78H276.9V96.42h-.144l-4.192,13.816h-2.841L265.53,96.418h-.145v14.5h-2.719Z"/>
      <path id="Path_2879" data-name="Path 2879" class="cls-2" d="M321.756,94.14H334v2.425h-4.728V110.92h-2.743V96.565h-4.777Z"/>
      <path id="Path_2880" data-name="Path 2880" class="cls-2" d="M345.837,94.14c3.331,0,5.119,1.249,5.119,4.361,0,2.033-.636,3.037-1.984,3.772,1.445.563,2.4,1.592,2.4,3.9,0,3.43-2.082,4.752-5.34,4.752h-6.566V94.14Zm-3.651,2.352v4.8h3.6c1.667,0,2.4-.832,2.4-2.474,0-1.617-.833-2.327-2.5-2.327Zm0,7.1v4.973h3.7c1.689,0,2.694-.539,2.694-2.548,0-1.911-1.421-2.425-2.743-2.425Z"/>
      <path id="Path_2881" data-name="Path 2881" class="cls-2" d="M358.113,94.14H368.7v2.377h-7.864v4.751h6.394V103.6h-6.394v4.924H368.7v2.4H358.113Z"/>
      <path id="Path_2882" data-name="Path 2882" class="cls-2" d="M378.446,94.14h5.414l4.164,16.78h-2.743l-1.24-4.92h-5.777l-1.239,4.923h-2.719Zm.362,9.456h4.707l-1.737-7.178h-1.225Z"/>
      <path id="Path_2883" data-name="Path 2883" class="cls-2" d="M396.8,105.947v4.973h-2.72V94.14h6.37c3.7,0,5.683,2.12,5.683,5.843,0,2.376-.956,4.519-2.744,5.352l2.769,5.585h-2.989l-2.425-4.973Zm3.65-9.455H396.8v7.1h3.7c2.058,0,2.841-1.85,2.841-3.589-.005-1.9-.935-3.511-2.895-3.511Z"/>
      <path id="Path_2884" data-name="Path 2884" class="cls-2" d="M289.712,94.14h5.413l4.165,16.78h-2.744L295.307,106H289.53l-1.239,4.923h-2.719Zm.361,9.456h4.707l-1.737-7.178h-1.224Z"/>
      <path id="Path_2885" data-name="Path 2885" class="cls-2" d="M308.061,105.947v4.973h-2.719V94.14h6.369c3.7,0,5.683,2.12,5.683,5.843,0,2.376-.955,4.519-2.743,5.352l2.768,5.585h-2.988l-2.426-4.973Zm3.65-9.455h-3.65v7.1h3.7c2.057,0,2.841-1.85,2.841-3.589C314.6,98.1,313.671,96.492,311.711,96.492Z"/>
      <path id="Path_2886" data-name="Path 2886" class="cls-2" d="M130.306,107.643a3.023,3.023,0,0,1-1.18,2.536,5.115,5.115,0,0,1-3.2.91,8.011,8.011,0,0,1-3.371-.564v-1.382a8.857,8.857,0,0,0,1.651.506,8.74,8.74,0,0,0,1.77.185,3.57,3.57,0,0,0,2.158-.544,1.782,1.782,0,0,0,.724-1.512,1.943,1.943,0,0,0-.257-1.049,2.382,2.382,0,0,0-.859-.755,12.085,12.085,0,0,0-1.833-.783,5.874,5.874,0,0,1-2.457-1.458,3.222,3.222,0,0,1-.737-2.2,2.738,2.738,0,0,1,1.07-2.267,4.445,4.445,0,0,1,2.832-.843A8.353,8.353,0,0,1,130,99.1l-.447,1.247a7.635,7.635,0,0,0-2.966-.641,2.864,2.864,0,0,0-1.778.49,1.609,1.609,0,0,0-.641,1.356,2.083,2.083,0,0,0,.236,1.049,2.235,2.235,0,0,0,.8.75,9.951,9.951,0,0,0,1.715.755,6.8,6.8,0,0,1,2.667,1.482,2.918,2.918,0,0,1,.724,2.057Z"/>
      <path id="Path_2887" data-name="Path 2887" class="cls-2" d="M134.147,101.685v5.991a2.411,2.411,0,0,0,.514,1.686,2.091,2.091,0,0,0,1.609.556,2.624,2.624,0,0,0,2.12-.792,4,4,0,0,0,.67-2.587v-4.854h1.4v9.236H139.3l-.2-1.239h-.076a2.783,2.783,0,0,1-1.192,1.045,4,4,0,0,1-1.74.362,3.532,3.532,0,0,1-2.524-.8,3.408,3.408,0,0,1-.839-2.562v-6.042Z"/>
      <path id="Path_2888" data-name="Path 2888" class="cls-2" d="M147.906,111.089a3.985,3.985,0,0,1-1.648-.333,3.094,3.094,0,0,1-1.251-1.023h-.1a12.458,12.458,0,0,1,.1,1.534v3.8h-1.4V101.685h1.137l.194,1.263h.068a3.252,3.252,0,0,1,1.256-1.094,3.81,3.81,0,0,1,1.643-.338,3.415,3.415,0,0,1,2.836,1.256,6.686,6.686,0,0,1-.018,7.057,3.417,3.417,0,0,1-2.817,1.26Zm-.2-8.385a2.48,2.48,0,0,0-2.047.784,4.029,4.029,0,0,0-.649,2.5v.311a4.616,4.616,0,0,0,.649,2.785,2.464,2.464,0,0,0,2.081.839,2.162,2.162,0,0,0,1.875-.97,4.592,4.592,0,0,0,.679-2.67,4.426,4.426,0,0,0-.679-2.651,2.231,2.231,0,0,0-1.915-.932Z"/>
      <path id="Path_2889" data-name="Path 2889" class="cls-2" d="M158.739,111.089a3.985,3.985,0,0,1-1.648-.333,3.094,3.094,0,0,1-1.251-1.023h-.1a12.461,12.461,0,0,1,.1,1.534v3.8h-1.4V101.685h1.137l.194,1.263h.068a3.252,3.252,0,0,1,1.256-1.094,3.81,3.81,0,0,1,1.643-.338,3.415,3.415,0,0,1,2.836,1.256,6.686,6.686,0,0,1-.018,7.057,3.417,3.417,0,0,1-2.817,1.26Zm-.2-8.385a2.48,2.48,0,0,0-2.048.784,4.029,4.029,0,0,0-.649,2.5v.311a4.616,4.616,0,0,0,.649,2.785,2.464,2.464,0,0,0,2.081.839,2.162,2.162,0,0,0,1.875-.97,4.592,4.592,0,0,0,.679-2.67,4.426,4.426,0,0,0-.679-2.651,2.231,2.231,0,0,0-1.91-.932Z"/>
      <path id="Path_2890" data-name="Path 2890" class="cls-2" d="M173.312,106.294a5.092,5.092,0,0,1-1.138,3.527,4,4,0,0,1-3.143,1.268,4.163,4.163,0,0,1-2.2-.581,3.838,3.838,0,0,1-1.482-1.669,5.8,5.8,0,0,1-.523-2.545,5.082,5.082,0,0,1,1.129-3.517,4,4,0,0,1,3.135-1.261,3.906,3.906,0,0,1,3.08,1.29,5.067,5.067,0,0,1,1.142,3.488Zm-7.037,0a4.384,4.384,0,0,0,.708,2.7,2.809,2.809,0,0,0,4.167,0,4.358,4.358,0,0,0,.713-2.7,4.294,4.294,0,0,0-.713-2.676,2.5,2.5,0,0,0-2.1-.914,2.46,2.46,0,0,0-2.073.9,4.337,4.337,0,0,0-.7,2.69Z"/>
      <path id="Path_2891" data-name="Path 2891" class="cls-2" d="M180.224,101.516a5.5,5.5,0,0,1,1.1.1l-.193,1.3a4.8,4.8,0,0,0-1.012-.127,2.464,2.464,0,0,0-1.917.91,3.324,3.324,0,0,0-.8,2.268v4.955H176v-9.236h1.154l.161,1.711h.067a4.05,4.05,0,0,1,1.239-1.391A2.787,2.787,0,0,1,180.224,101.516Z"/>
      <path id="Path_2892" data-name="Path 2892" class="cls-2" d="M187.062,109.935a4.53,4.53,0,0,0,.717-.055,4.651,4.651,0,0,0,.548-.113v1.069a2.567,2.567,0,0,1-.67.182,5,5,0,0,1-.8.071q-2.679,0-2.679-2.822v-5.5h-1.324V102.1l1.324-.582.589-1.972h.809v2.141h2.68v1.087h-2.68v5.435a1.868,1.868,0,0,0,.4,1.281,1.378,1.378,0,0,0,1.086.445Z"/>
      <path id="Path_2893" data-name="Path 2893" class="cls-2" d="M194.238,111.089a4.24,4.24,0,0,1-3.232-1.247,4.827,4.827,0,0,1-1.184-3.463,5.35,5.35,0,0,1,1.1-3.548,3.651,3.651,0,0,1,2.953-1.315,3.481,3.481,0,0,1,2.747,1.142,4.374,4.374,0,0,1,1.012,3.013v.885h-6.363a3.67,3.67,0,0,0,.822,2.469,2.845,2.845,0,0,0,2.2.842,7.452,7.452,0,0,0,2.95-.623v1.247a7.377,7.377,0,0,1-1.4.459,7.875,7.875,0,0,1-1.6.139Zm-.379-8.4a2.284,2.284,0,0,0-1.774.724,3.34,3.34,0,0,0-.78,2.006h4.829a3.08,3.08,0,0,0-.59-2.027,2.075,2.075,0,0,0-1.685-.7Z"/>
      <path id="Path_2894" data-name="Path 2894" class="cls-2" d="M206.65,109.682h-.075a3.288,3.288,0,0,1-2.9,1.407,3.428,3.428,0,0,1-2.819-1.238,5.45,5.45,0,0,1-1.007-3.523,5.548,5.548,0,0,1,1.011-3.548,3.406,3.406,0,0,1,2.815-1.264,3.359,3.359,0,0,1,2.882,1.365h.109l-.059-.665-.033-.649V97.809h1.4v13.112h-1.138Zm-2.8.236a2.55,2.55,0,0,0,2.077-.779,3.94,3.94,0,0,0,.645-2.516v-.3a4.632,4.632,0,0,0-.653-2.8,2.479,2.479,0,0,0-2.086-.839,2.139,2.139,0,0,0-1.883.956,4.75,4.75,0,0,0-.654,2.7,4.567,4.567,0,0,0,.649,2.672,2.2,2.2,0,0,0,1.908.906Z"/>
      <path id="Path_2895" data-name="Path 2895" class="cls-2" d="M220.411,101.533a3.432,3.432,0,0,1,2.828,1.244,6.657,6.657,0,0,1-.009,7.052,3.42,3.42,0,0,1-2.819,1.26,3.977,3.977,0,0,1-1.647-.333,3.09,3.09,0,0,1-1.252-1.023h-.1l-.295,1.188h-1V97.809h1.4v3.184q0,1.071-.067,1.922h.067a3.32,3.32,0,0,1,2.894-1.382Zm-.2,1.171a2.444,2.444,0,0,0-2.065.823,6.336,6.336,0,0,0,.017,5.552,2.466,2.466,0,0,0,2.082.839,2.158,2.158,0,0,0,1.921-.939,4.837,4.837,0,0,0,.632-2.7,4.645,4.645,0,0,0-.632-2.689,2.239,2.239,0,0,0-1.957-.89Z"/>
      <path id="Path_2896" data-name="Path 2896" class="cls-2" d="M225.458,101.685h1.5l2.022,5.266a20.129,20.129,0,0,1,.826,2.605h.067c.073-.287.226-.776.46-1.471s1-2.827,2.287-6.4h1.5L230.152,112.2a5.254,5.254,0,0,1-1.378,2.213,2.933,2.933,0,0,1-1.934.653,5.645,5.645,0,0,1-1.264-.143V113.8a4.9,4.9,0,0,0,1.036.1,2.138,2.138,0,0,0,2.056-1.619l.514-1.314Z"/>
    </g>
  </g>
</svg>
