<svg xmlns="http://www.w3.org/2000/svg" xmlns:xlink="http://www.w3.org/1999/xlink" viewBox="0 0 436 116">
  <defs>
    <style>
      .cls-1 {
        clip-path: url(#clip-SWU_TM-logo-clr);
      }

      .cls-2 {
        fill: #173647;
      }

      .cls-3 {
        fill: #85ea2d;
      }
    </style>
    <clipPath id="clip-SWU_TM-logo-clr">
      <rect width="436" height="116"/>
    </clipPath>
  </defs>
  <g id="SWU_TM-logo-clr" class="cls-1">
    <g id="SWU_Full-CLR">
      <path id="Path_2793" data-name="Path 2793" class="cls-2" d="M429,70.858h-.7V67.176h-1.26v-.6h3.22v.6H429Z"/>
      <path id="Path_2794" data-name="Path 2794" class="cls-2" d="M433.063,70.858l-1.242-3.577H431.8q.05.8.049,1.494v2.083h-.635V66.575h.987l1.19,3.408h.017l1.225-3.408h.99v4.283h-.674V68.74q0-.319.016-.832c.01-.342.02-.549.028-.621h-.023l-1.287,3.571Z"/>
      <path id="Path_2795" data-name="Path 2795" class="cls-3" d="M50.027,97.669A47.642,47.642,0,1,1,97.67,50.027,47.642,47.642,0,0,1,50.027,97.669Z"/>
      <path id="Path_2796" data-name="Path 2796" class="cls-2" d="M50.027,4.769A45.258,45.258,0,1,1,4.769,50.027,45.258,45.258,0,0,1,50.027,4.769m0-4.769a50.027,50.027,0,1,0,50.027,50.027A50.027,50.027,0,0,0,50.027,0Z"/>
      <path id="Path_2797" data-name="Path 2797" class="cls-2" d="M31.5,33.854c-.154,1.712.058,3.482-.057,5.213a42.665,42.665,0,0,1-.693,5.156,9.532,9.532,0,0,1-4.1,5.829c4.078,2.654,4.539,6.771,4.809,10.946.135,2.25.077,4.52.308,6.752.173,1.731.846,2.174,2.636,2.231.731.02,1.48,0,2.327,0V75.33c-5.29.9-9.657-.6-10.734-5.079a30.76,30.76,0,0,1-.654-5c-.116-1.789.076-3.578-.058-5.367-.385-4.906-1.02-6.56-5.713-6.791v-6.1a9.189,9.189,0,0,1,1.019-.173c2.577-.135,3.674-.924,4.232-3.463a29.573,29.573,0,0,0,.481-4.329,81.809,81.809,0,0,1,.6-8.406c.674-3.982,3.136-5.906,7.234-6.137,1.154-.057,2.327,0,3.655,0v5.464c-.558.038-1.039.115-1.539.115C31.925,29.949,31.751,31.084,31.5,33.854Zm6.407,12.658H37.83a3.515,3.515,0,1,0-.347,7.021h.231a3.461,3.461,0,0,0,3.655-3.251V50.09a3.523,3.523,0,0,0-3.461-3.578Zm12.061,0a3.373,3.373,0,0,0-3.482,3.251,1.79,1.79,0,0,0,.02.327,3.3,3.3,0,0,0,3.578,3.443,3.264,3.264,0,0,0,3.444-3.558,3.309,3.309,0,0,0-3.559-3.463Zm12.351,0a3.592,3.592,0,0,0-3.655,3.482A3.529,3.529,0,0,0,62.2,53.533h.039c1.769.309,3.559-1.4,3.674-3.462a3.571,3.571,0,0,0-3.593-3.559Zm16.948.288c-2.232-.1-3.348-.846-3.9-2.962a21.523,21.523,0,0,1-.635-4.136c-.154-2.578-.135-5.175-.308-7.753-.4-6.117-4.828-8.252-11.254-7.195v5.31c1.019,0,1.808,0,2.6.019,1.366.019,2.4.539,2.539,2.059.136,1.385.136,2.789.27,4.193.269,2.79.423,5.618.9,8.369A8.715,8.715,0,0,0,73.4,50.052c-3.4,2.289-4.4,5.559-4.578,9.234-.1,2.52-.154,5.059-.289,7.6-.115,2.308-.923,3.058-3.251,3.116-.653.019-1.288.077-2.019.115v5.445c1.366,0,2.616.077,3.866,0,3.886-.231,6.233-2.117,7-5.887A48.9,48.9,0,0,0,74.7,63.4c.135-1.923.116-3.866.309-5.771.288-2.982,1.654-4.213,4.635-4.4a4.037,4.037,0,0,0,.828-.192v-6.1c-.5-.058-.844-.115-1.209-.135Z"/>
      <path id="Path_2798" data-name="Path 2798" class="cls-2" d="M151.972,58.123a11.229,11.229,0,0,1-4.383,9.424q-4.385,3.381-11.9,3.382-8.14,0-12.523-2.1V63.7a32.949,32.949,0,0,0,6.137,1.878,32.209,32.209,0,0,0,6.574.689q5.323,0,8.015-2.02a6.625,6.625,0,0,0,2.693-5.619,7.219,7.219,0,0,0-.955-3.9,8.885,8.885,0,0,0-3.194-2.8,44.6,44.6,0,0,0-6.809-2.912Q129.239,46.73,126.5,43.6a11.961,11.961,0,0,1-2.739-8.172A10.162,10.162,0,0,1,127.739,27q3.975-3.131,10.52-3.132a31,31,0,0,1,12.555,2.506l-1.66,4.633a28.379,28.379,0,0,0-11.02-2.379,10.671,10.671,0,0,0-6.607,1.815,5.987,5.987,0,0,0-2.379,5.041,7.728,7.728,0,0,0,.876,3.9,8.252,8.252,0,0,0,2.959,2.787,36.707,36.707,0,0,0,6.371,2.8q7.2,2.568,9.91,5.51a10.841,10.841,0,0,1,2.708,7.642Z"/>
      <path id="Path_2799" data-name="Path 2799" class="cls-2" d="M184.988,70.3,178.7,50.171q-.6-1.848-2.223-8.392h-.25q-1.254,5.481-2.192,8.454L167.549,70.3h-6.012l-9.361-34.315h5.448q3.318,12.931,5.056,19.694a79.656,79.656,0,0,1,1.988,9.111h.251q.343-1.785,1.111-4.618t1.331-4.493l6.293-19.694h5.635l6.137,19.694a66.336,66.336,0,0,1,2.379,9.049h.251a33.08,33.08,0,0,1,.673-3.476q.547-2.347,6.528-25.267h5.385L191.156,70.3Z"/>
      <path id="Path_2800" data-name="Path 2800" class="cls-2" d="M224.815,70.3l-1.033-4.884h-.251a14.442,14.442,0,0,1-5.119,4.367,15.6,15.6,0,0,1-6.372,1.144q-5.1,0-8-2.631t-2.9-7.482q0-10.4,16.625-10.9l5.824-.188V47.6q0-4.04-1.738-5.964T216.3,39.713a22.644,22.644,0,0,0-9.706,2.63L205,38.366a24.492,24.492,0,0,1,5.558-2.16,24.094,24.094,0,0,1,6.058-.782q6.135,0,9.1,2.724t2.959,8.735V70.3Zm-11.741-3.663a10.552,10.552,0,0,0,7.624-2.661,9.846,9.846,0,0,0,2.771-7.452v-3.1l-5.2.219q-6.2.219-8.939,1.925a5.807,5.807,0,0,0-2.739,5.307,5.35,5.35,0,0,0,1.706,4.289,7.077,7.077,0,0,0,4.777,1.475Z"/>
      <path id="Path_2801" data-name="Path 2801" class="cls-2" d="M264.3,35.987v3.287l-6.356.752a11.168,11.168,0,0,1,2.254,6.857,10.143,10.143,0,0,1-3.444,8.046q-3.444,3.006-9.455,3.006a15.745,15.745,0,0,1-2.881-.25Q241.1,59.439,241.1,62.1a2.242,2.242,0,0,0,1.158,2.082,8.457,8.457,0,0,0,3.976.674h6.074q5.572,0,8.563,2.347a8.161,8.161,0,0,1,2.99,6.826,9.744,9.744,0,0,1-4.571,8.688q-4.57,2.99-13.337,2.99-6.732,0-10.379-2.5a8.086,8.086,0,0,1-3.648-7.075,7.947,7.947,0,0,1,2-5.417,10.209,10.209,0,0,1,5.635-3.1,5.441,5.441,0,0,1-2.207-1.846,4.889,4.889,0,0,1-.892-2.912,5.522,5.522,0,0,1,1-3.287,10.532,10.532,0,0,1,3.162-2.725,9.266,9.266,0,0,1-4.336-3.726,10.941,10.941,0,0,1-1.675-6.01q0-5.637,3.381-8.689t9.58-3.053a17.439,17.439,0,0,1,4.853.626ZM236.932,76.063a4.659,4.659,0,0,0,2.349,4.227,12.969,12.969,0,0,0,6.731,1.44q6.543,0,9.69-1.956a5.994,5.994,0,0,0,3.147-5.308q0-2.787-1.722-3.866t-6.481-1.08h-6.231a8.205,8.205,0,0,0-5.51,1.69,6.04,6.04,0,0,0-1.973,4.853Zm2.818-29.086a6.991,6.991,0,0,0,2.035,5.448,8.129,8.129,0,0,0,5.667,1.847q7.608,0,7.608-7.389,0-7.733-7.7-7.734a7.624,7.624,0,0,0-5.635,1.973q-1.974,1.973-1.975,5.855Z"/>
      <path id="Path_2802" data-name="Path 2802" class="cls-2" d="M298.835,35.987v3.287l-6.356.752a11.16,11.16,0,0,1,2.255,6.857,10.146,10.146,0,0,1-3.444,8.046q-3.446,3.006-9.456,3.006a15.734,15.734,0,0,1-2.88-.25q-3.32,1.753-3.319,4.414a2.241,2.241,0,0,0,1.159,2.082,8.454,8.454,0,0,0,3.976.674h6.074q5.573,0,8.563,2.347a8.161,8.161,0,0,1,2.99,6.826,9.744,9.744,0,0,1-4.571,8.688q-4.572,2.99-13.338,2.99-6.732,0-10.379-2.5a8.085,8.085,0,0,1-3.647-7.075,7.946,7.946,0,0,1,2-5.417,10.212,10.212,0,0,1,5.636-3.1,5.434,5.434,0,0,1-2.207-1.846A4.89,4.89,0,0,1,271,62.851a5.522,5.522,0,0,1,1-3.287,10.532,10.532,0,0,1,3.162-2.725,9.275,9.275,0,0,1-4.336-3.726,10.941,10.941,0,0,1-1.675-6.01q0-5.637,3.381-8.689t9.581-3.053a17.439,17.439,0,0,1,4.853.626ZM271.471,76.063a4.66,4.66,0,0,0,2.348,4.227,12.973,12.973,0,0,0,6.732,1.44q6.543,0,9.69-1.956a5.994,5.994,0,0,0,3.147-5.308q0-2.787-1.723-3.866t-6.481-1.08h-6.23a8.2,8.2,0,0,0-5.51,1.69A6.04,6.04,0,0,0,271.471,76.063Zm2.818-29.086a6.987,6.987,0,0,0,2.035,5.448,8.126,8.126,0,0,0,5.667,1.847q7.608,0,7.608-7.389,0-7.733-7.7-7.734a7.622,7.622,0,0,0-5.635,1.973q-1.976,1.973-1.975,5.855Z"/>
      <path id="Path_2803" data-name="Path 2803" class="cls-2" d="M316.477,70.929q-7.606,0-12.006-4.635t-4.4-12.867q0-8.3,4.086-13.182a13.569,13.569,0,0,1,10.973-4.884A12.939,12.939,0,0,1,325.338,39.6q3.762,4.248,3.762,11.2v3.288H305.457q.156,6.042,3.052,9.174t8.156,3.131a27.63,27.63,0,0,0,10.958-2.318v4.634a27.408,27.408,0,0,1-5.213,1.706,29.238,29.238,0,0,1-5.933.514Zm-1.408-31.216a8.488,8.488,0,0,0-6.591,2.692,12.413,12.413,0,0,0-2.9,7.453h17.94q0-4.915-2.192-7.531a7.715,7.715,0,0,0-6.257-2.614Z"/>
      <path id="Path_2804" data-name="Path 2804" class="cls-2" d="M350.6,35.361a20.3,20.3,0,0,1,4.1.376l-.72,4.822a17.662,17.662,0,0,0-3.757-.47A9.146,9.146,0,0,0,343.1,43.47a12.33,12.33,0,0,0-2.959,8.423V70.3h-5.2V35.987h4.289l.6,6.356h.25a15.091,15.091,0,0,1,4.6-5.166,10.365,10.365,0,0,1,5.92-1.816Z"/>
      <path id="Path_2805" data-name="Path 2805" class="cls-2" d="M403.5,24.528V54.147q0,7.827-4.727,12.3t-12.994,4.478q-8.265,0-12.789-4.509t-4.525-12.4V24.528h5.323V54.4q0,5.728,3.131,8.8t9.2,3.069q5.792,0,8.923-3.084t3.131-8.844V24.528Z"/>
      <path id="Path_2806" data-name="Path 2806" class="cls-2" d="M412.547,70.3V24.528h5.323V70.3Z"/>
      <path id="Path_2807" data-name="Path 2807" class="cls-2" d="M255.556,96.638s-3.43-.391-4.85-.391c-2.058,0-3.111.735-3.111,2.18,0,1.568.882,1.935,3.748,2.719,3.527.98,4.8,1.911,4.8,4.777,0,3.675-2.3,5.267-5.61,5.267a35.667,35.667,0,0,1-5.486-.662l.269-2.18s3.307.441,5.046.441c2.082,0,3.037-.931,3.037-2.7,0-1.421-.759-1.91-3.331-2.523-3.626-.93-5.193-2.033-5.193-4.948,0-3.381,2.229-4.776,5.585-4.776a37.222,37.222,0,0,1,5.316.587Z"/>
      <path id="Path_2808" data-name="Path 2808" class="cls-2" d="M262.666,94.14h4.728l3.748,13.106L274.89,94.14h4.752v16.78H276.9V96.42h-.144l-4.192,13.816h-2.841L265.53,96.418h-.145v14.5h-2.719Z"/>
      <path id="Path_2809" data-name="Path 2809" class="cls-2" d="M321.756,94.14H334v2.425h-4.728V110.92h-2.743V96.565h-4.777Z"/>
      <path id="Path_2810" data-name="Path 2810" class="cls-2" d="M345.837,94.14c3.331,0,5.119,1.249,5.119,4.361,0,2.033-.636,3.037-1.984,3.772,1.445.563,2.4,1.592,2.4,3.9,0,3.43-2.082,4.752-5.34,4.752h-6.566V94.14Zm-3.651,2.352v4.8h3.6c1.667,0,2.4-.832,2.4-2.474,0-1.617-.833-2.327-2.5-2.327Zm0,7.1v4.973h3.7c1.689,0,2.694-.539,2.694-2.548,0-1.911-1.421-2.425-2.743-2.425Z"/>
      <path id="Path_2811" data-name="Path 2811" class="cls-2" d="M358.113,94.14H368.7v2.377h-7.864v4.751h6.394V103.6h-6.394v4.924H368.7v2.4H358.113Z"/>
      <path id="Path_2812" data-name="Path 2812" class="cls-2" d="M378.446,94.14h5.414l4.164,16.78h-2.743l-1.24-4.92h-5.777l-1.239,4.923h-2.719Zm.362,9.456h4.707l-1.737-7.178h-1.225Z"/>
      <path id="Path_2813" data-name="Path 2813" class="cls-2" d="M396.8,105.947v4.973h-2.72V94.14h6.37c3.7,0,5.683,2.12,5.683,5.843,0,2.376-.956,4.519-2.744,5.352l2.769,5.585h-2.989l-2.425-4.973Zm3.65-9.455H396.8v7.1h3.7c2.058,0,2.841-1.85,2.841-3.589-.005-1.9-.935-3.511-2.895-3.511Z"/>
      <path id="Path_2814" data-name="Path 2814" class="cls-2" d="M289.712,94.14h5.413l4.165,16.78h-2.744L295.307,106H289.53l-1.239,4.923h-2.719Zm.361,9.456h4.707l-1.737-7.178h-1.224Z"/>
      <path id="Path_2815" data-name="Path 2815" class="cls-2" d="M308.061,105.947v4.973h-2.719V94.14h6.369c3.7,0,5.683,2.12,5.683,5.843,0,2.376-.955,4.519-2.743,5.352l2.768,5.585h-2.988l-2.426-4.973Zm3.65-9.455h-3.65v7.1h3.7c2.057,0,2.841-1.85,2.841-3.589C314.6,98.1,313.671,96.492,311.711,96.492Z"/>
      <path id="Path_2816" data-name="Path 2816" class="cls-2" d="M130.3,107.644a3.023,3.023,0,0,1-1.179,2.537,5.115,5.115,0,0,1-3.2.91,8.009,8.009,0,0,1-3.371-.565v-1.382a8.782,8.782,0,0,0,1.651.5,8.6,8.6,0,0,0,1.77.186,3.578,3.578,0,0,0,2.158-.543,1.785,1.785,0,0,0,.724-1.513,1.948,1.948,0,0,0-.257-1.049,2.389,2.389,0,0,0-.859-.754,11.967,11.967,0,0,0-1.833-.784,5.843,5.843,0,0,1-2.457-1.459,3.214,3.214,0,0,1-.737-2.2,2.734,2.734,0,0,1,1.07-2.266,4.445,4.445,0,0,1,2.832-.843,8.336,8.336,0,0,1,3.379.674l-.447,1.248a7.617,7.617,0,0,0-2.966-.641,2.877,2.877,0,0,0-1.778.488,1.616,1.616,0,0,0-.641,1.358,2.083,2.083,0,0,0,.236,1.049,2.226,2.226,0,0,0,.8.75,9.962,9.962,0,0,0,1.715.754,6.79,6.79,0,0,1,2.666,1.483,2.913,2.913,0,0,1,.724,2.062Z"/>
      <path id="Path_2817" data-name="Path 2817" class="cls-2" d="M134.147,101.687v5.991a2.406,2.406,0,0,0,.514,1.685,2.091,2.091,0,0,0,1.609.556,2.63,2.63,0,0,0,2.12-.791,4,4,0,0,0,.67-2.588v-4.853h1.4v9.236H139.3l-.2-1.239h-.076a2.79,2.79,0,0,1-1.192,1.045,4.019,4.019,0,0,1-1.74.362,3.527,3.527,0,0,1-2.524-.8,3.4,3.4,0,0,1-.839-2.561v-6.042Z"/>
      <path id="Path_2818" data-name="Path 2818" class="cls-2" d="M147.906,111.091a4,4,0,0,1-1.648-.333,3.1,3.1,0,0,1-1.251-1.024h-.1a12.474,12.474,0,0,1,.1,1.535v3.8h-1.4V101.687h1.137l.194,1.263h.068a3.239,3.239,0,0,1,1.256-1.1,3.81,3.81,0,0,1,1.643-.337,3.415,3.415,0,0,1,2.836,1.256,6.686,6.686,0,0,1-.018,7.057,3.417,3.417,0,0,1-2.817,1.26Zm-.2-8.385a2.482,2.482,0,0,0-2.047.783,4.032,4.032,0,0,0-.649,2.494v.313a4.616,4.616,0,0,0,.649,2.785,2.466,2.466,0,0,0,2.081.838,2.162,2.162,0,0,0,1.875-.969,4.593,4.593,0,0,0,.679-2.671,4.425,4.425,0,0,0-.679-2.65,2.231,2.231,0,0,0-1.915-.923Z"/>
      <path id="Path_2819" data-name="Path 2819" class="cls-2" d="M158.739,111.091a4,4,0,0,1-1.648-.333,3.1,3.1,0,0,1-1.251-1.024h-.1a12.474,12.474,0,0,1,.1,1.535v3.8h-1.4V101.687h1.137l.194,1.263h.068a3.239,3.239,0,0,1,1.256-1.1,3.81,3.81,0,0,1,1.643-.337,3.415,3.415,0,0,1,2.836,1.256,6.686,6.686,0,0,1-.018,7.057,3.417,3.417,0,0,1-2.817,1.26Zm-.2-8.385a2.482,2.482,0,0,0-2.047.783,4.032,4.032,0,0,0-.649,2.494v.313a4.616,4.616,0,0,0,.649,2.785,2.466,2.466,0,0,0,2.081.838,2.162,2.162,0,0,0,1.875-.969,4.593,4.593,0,0,0,.679-2.671,4.425,4.425,0,0,0-.679-2.65,2.231,2.231,0,0,0-1.912-.923Z"/>
      <path id="Path_2820" data-name="Path 2820" class="cls-2" d="M173.312,106.3a5.092,5.092,0,0,1-1.138,3.527,4,4,0,0,1-3.143,1.268,4.154,4.154,0,0,1-2.2-.582,3.838,3.838,0,0,1-1.483-1.668,5.817,5.817,0,0,1-.522-2.545,5.085,5.085,0,0,1,1.129-3.518,4,4,0,0,1,3.135-1.26,3.906,3.906,0,0,1,3.08,1.29,5.07,5.07,0,0,1,1.142,3.488Zm-7.037,0a4.386,4.386,0,0,0,.708,2.7,2.811,2.811,0,0,0,4.167,0,4.358,4.358,0,0,0,.713-2.7,4.292,4.292,0,0,0-.713-2.676,2.5,2.5,0,0,0-2.1-.914,2.462,2.462,0,0,0-2.073.9A4.34,4.34,0,0,0,166.275,106.3Z"/>
      <path id="Path_2821" data-name="Path 2821" class="cls-2" d="M180.224,101.518a5.581,5.581,0,0,1,1.1.1l-.193,1.3a4.8,4.8,0,0,0-1.012-.127,2.464,2.464,0,0,0-1.917.91,3.324,3.324,0,0,0-.8,2.268v4.955H176v-9.236h1.154l.161,1.711h.067a4.05,4.05,0,0,1,1.239-1.391A2.787,2.787,0,0,1,180.224,101.518Z"/>
      <path id="Path_2822" data-name="Path 2822" class="cls-2" d="M187.062,109.937a4.529,4.529,0,0,0,.717-.055,4.79,4.79,0,0,0,.547-.113v1.069a2.524,2.524,0,0,1-.669.181,5.015,5.015,0,0,1-.8.072q-2.679,0-2.68-2.822v-5.5h-1.323V102.1l1.323-.581.59-1.972h.809v2.141h2.68v1.087h-2.68v5.435a1.867,1.867,0,0,0,.4,1.28A1.376,1.376,0,0,0,187.062,109.937Z"/>
      <path id="Path_2823" data-name="Path 2823" class="cls-2" d="M194.238,111.091a4.244,4.244,0,0,1-3.232-1.247,4.829,4.829,0,0,1-1.184-3.464,5.349,5.349,0,0,1,1.1-3.547,3.65,3.65,0,0,1,2.953-1.315,3.483,3.483,0,0,1,2.747,1.141,4.376,4.376,0,0,1,1.012,3.014v.885h-6.363a3.667,3.667,0,0,0,.822,2.468,2.842,2.842,0,0,0,2.2.843,7.436,7.436,0,0,0,2.95-.624v1.248a7.471,7.471,0,0,1-1.4.459,7.947,7.947,0,0,1-1.6.139Zm-.379-8.4a2.285,2.285,0,0,0-1.774.725,3.34,3.34,0,0,0-.78,2h4.829a3.077,3.077,0,0,0-.59-2.026,2.076,2.076,0,0,0-1.685-.7Z"/>
      <path id="Path_2824" data-name="Path 2824" class="cls-2" d="M206.65,109.684h-.075a3.288,3.288,0,0,1-2.9,1.407,3.428,3.428,0,0,1-2.819-1.238,5.453,5.453,0,0,1-1.007-3.524,5.545,5.545,0,0,1,1.011-3.547,3.4,3.4,0,0,1,2.815-1.264,3.359,3.359,0,0,1,2.882,1.365h.109l-.059-.665-.033-.65V97.81h1.4v13.113h-1.137Zm-2.8.235a2.55,2.55,0,0,0,2.077-.779,3.938,3.938,0,0,0,.645-2.516v-.3a4.636,4.636,0,0,0-.653-2.8,2.482,2.482,0,0,0-2.086-.839,2.141,2.141,0,0,0-1.884.957,4.758,4.758,0,0,0-.653,2.7,4.562,4.562,0,0,0,.649,2.672,2.2,2.2,0,0,0,1.908.905Z"/>
      <path id="Path_2825" data-name="Path 2825" class="cls-2" d="M220.411,101.534a3.435,3.435,0,0,1,2.828,1.244,6.659,6.659,0,0,1-.009,7.053,3.42,3.42,0,0,1-2.819,1.26,3.993,3.993,0,0,1-1.647-.333,3.1,3.1,0,0,1-1.252-1.024h-.1l-.295,1.189h-1V97.81h1.4V101q0,1.071-.067,1.922h.067A3.32,3.32,0,0,1,220.411,101.534Zm-.2,1.172a2.444,2.444,0,0,0-2.065.822,6.338,6.338,0,0,0,.017,5.553,2.468,2.468,0,0,0,2.082.838,2.155,2.155,0,0,0,1.921-.939,4.832,4.832,0,0,0,.632-2.7,4.644,4.644,0,0,0-.632-2.688,2.239,2.239,0,0,0-1.957-.886Z"/>
      <path id="Path_2826" data-name="Path 2826" class="cls-2" d="M225.458,101.687h1.5l2.022,5.266a20.028,20.028,0,0,1,.826,2.6h.067q.11-.431.46-1.471t2.287-6.4h1.5L230.152,112.2a5.249,5.249,0,0,1-1.378,2.212,2.928,2.928,0,0,1-1.934.653,5.587,5.587,0,0,1-1.264-.143V113.8a4.834,4.834,0,0,0,1.036.1,2.136,2.136,0,0,0,2.056-1.617l.514-1.314Z"/>
    </g>
  </g>
</svg>
